<svg width="79" height="70" viewBox="0 0 79 70" fill="none" xmlns="http://www.w3.org/2000/svg">
<path d="M78.5 34.9994C78.5 41.7789 73.6557 47.5482 66.9522 49.5968V54.6147C66.9522 55.0028 66.9373 55.3893 66.9091 55.7758C66.8809 56.1623 66.8411 56.514 66.7864 56.8773C66.3454 59.8478 65.0447 62.6243 63.0447 64.8642C61.0447 67.104 58.4329 68.7094 55.5315 69.4821C52.6301 70.2548 49.566 70.1611 46.7172 69.2126C43.8684 68.2641 41.3595 66.5023 39.5 64.1444C37.5204 66.6541 34.8081 68.4845 31.7404 69.3812C28.6727 70.278 25.4018 70.1964 22.3825 69.1479C19.3633 68.0995 16.7456 66.1362 14.8934 63.5309C13.0413 60.9257 12.0466 57.8081 12.0477 54.6113V49.5968C5.34431 47.5515 0.5 41.7822 0.5 34.9994C0.5 28.2166 5.34431 22.449 12.0477 20.402V15.3875C12.0471 14.6967 12.0936 14.0067 12.1871 13.3223C12.5915 10.3295 13.8678 7.52205 15.8568 5.24994C17.8458 2.97783 20.4595 1.34161 23.372 0.545276C26.2845 -0.251055 29.3669 -0.172255 32.2349 0.771854C35.1029 1.71596 37.6296 3.4836 39.5 5.85438C41.4796 3.3447 44.1918 1.51428 47.2596 0.617569C50.3273 -0.279145 53.5982 -0.197598 56.6174 0.850875C59.6367 1.89935 62.2544 3.86265 64.1065 6.46786C65.9587 9.07307 66.9534 12.1907 66.9522 15.3875V20.402C73.664 22.449 78.5 28.2199 78.5 34.9994Z" fill="#A091FF"/>
</svg>
