<svg width="53" height="50" viewBox="0 0 53 50" fill="none" xmlns="http://www.w3.org/2000/svg">
<path d="M45.1916 33.6071V39.0087C45.1916 41.9236 44.0891 44.7191 42.1268 46.7803C40.1644 48.8414 37.5029 49.9994 34.7277 49.9994C31.9525 49.9994 29.291 48.8414 27.3287 46.7803C25.3663 44.7191 24.2639 41.9236 24.2639 39.0087V10.9936C24.2639 10.1726 24.1099 9.35957 23.8108 8.60104C23.5116 7.84251 23.0732 7.1533 22.5205 6.57275C21.9677 5.9922 21.3116 5.53167 20.5894 5.21748C19.8672 4.90329 19.0932 4.74158 18.3115 4.74158C17.5299 4.74158 16.7558 4.90329 16.0337 5.21748C15.3115 5.53167 14.6553 5.9922 14.1026 6.57275C13.5499 7.1533 13.1114 7.84251 12.8123 8.60104C12.5132 9.35957 12.3592 10.1726 12.3592 10.9936V17.489C12.4749 18.1047 12.6777 18.6987 12.9611 19.2513C13.5781 20.4564 14.5458 21.4228 15.7229 22.0094C15.8507 22.071 15.9892 22.1325 16.1144 22.1856V10.9964C16.1136 10.7432 16.1532 10.4917 16.2315 10.2523C16.3794 9.79612 16.6594 9.39999 17.0325 9.11947C17.4055 8.83895 17.8528 8.68811 18.3115 8.68811C18.7703 8.68811 19.2176 8.83895 19.5906 9.11947C19.9636 9.39999 20.2437 9.79612 20.3915 10.2523C20.4698 10.4917 20.5094 10.7432 20.5087 10.9964V39.0087C20.5087 39.6208 20.2772 40.2078 19.8652 40.6406C19.4531 41.0734 18.8943 41.3165 18.3115 41.3165C17.7288 41.3165 17.1699 41.0734 16.7579 40.6406C16.3458 40.2078 16.1144 39.6208 16.1144 39.0087C16.1144 39.0087 16.0904 26.9439 16.0797 26.9802C13.7456 26.4482 11.6555 25.0922 10.1576 23.1382C8.65973 21.1841 7.84447 18.75 7.84767 16.2414V10.9936C7.84767 8.07868 8.95011 5.28316 10.9125 3.22201C12.8748 1.16086 15.5363 0.00292969 18.3115 0.00292969C21.0867 0.00292969 23.7482 1.16086 25.7106 3.22201C27.673 5.28316 28.7754 8.07868 28.7754 10.9936V39.0087C28.7745 39.942 28.9732 40.8637 29.3567 41.7056C29.7402 42.5475 30.2988 43.2883 30.9912 43.8732C32.0485 44.765 33.3638 45.251 34.7197 45.251C36.0757 45.251 37.391 44.765 38.4483 43.8732C39.1403 43.2879 39.6985 42.547 40.082 41.7052C40.4654 40.8634 40.6643 39.9419 40.6641 39.0087V32.3539C40.4095 31.0129 39.749 29.7942 38.7812 28.8796C38.3284 28.4387 37.8137 28.0735 37.2551 27.7971C37.1459 27.7467 37.0368 27.6964 36.9249 27.6516V38.9975C36.9239 39.1861 36.9016 39.3739 36.8583 39.557C36.7388 40.0554 36.4643 40.4976 36.0783 40.8135C35.6924 41.1294 35.217 41.301 34.7277 41.301C34.2384 41.301 33.7631 41.1294 33.3772 40.8135C32.9912 40.4976 32.7167 40.0554 32.5971 39.557C32.5539 39.3739 32.5315 39.1861 32.5306 38.9975V10.9936C32.5306 10.3815 32.762 9.79453 33.1741 9.36173C33.5861 8.92894 34.145 8.68579 34.7277 8.68579C35.3104 8.68579 35.8693 8.92894 36.2814 9.36173C36.6934 9.79453 36.9249 10.3815 36.9249 10.9936V22.8318V22.857C38.2723 23.1574 39.549 23.7376 40.6801 24.5634C42.0736 25.5732 43.2125 26.9238 43.9985 28.4988C44.7844 30.0739 45.1939 31.826 45.1916 33.6043V33.6071Z" fill="url(#paint0_linear_3492_2884)"/>
<path d="M26.5221 45.826C25.1741 47.6167 23.3286 48.9221 21.2421 49.5609C19.1555 50.1997 16.9313 50.1402 14.8784 49.3906C12.8255 48.6411 11.0457 47.2388 9.7862 45.3784C8.52671 43.5179 7.85003 41.2917 7.8501 39.0089V35.571C5.60324 34.9612 3.61295 33.5846 2.192 31.6574C0.771058 29.7303 0 27.3619 0 24.9244C0 22.4869 0.771058 20.1185 2.192 18.1914C3.61295 16.2642 5.60324 14.8876 7.8501 14.2778V16.236C7.84766 17.2118 7.96947 18.1836 8.2123 19.1256C8.08979 19.1787 7.96462 19.2347 7.84743 19.299C6.63739 19.9186 5.66304 20.9507 5.08341 22.2268C4.50377 23.503 4.3531 24.9478 4.65598 26.3255C4.95885 27.7032 5.6974 28.9323 6.75105 29.8123C7.8047 30.6923 9.11124 31.1712 10.4574 31.1708H12.359V39.0033C12.359 40.6614 12.9861 42.2517 14.1024 43.4241C15.2186 44.5966 16.7326 45.2553 18.3113 45.2553C19.89 45.2553 21.404 44.5966 22.5202 43.4241C23.6365 42.2517 24.2636 40.6614 24.2636 39.0033C24.2591 41.4805 25.0554 43.886 26.5221 45.826Z" fill="url(#paint1_linear_3492_2884)"/>
<path d="M53.0004 24.9245C52.9997 27.3534 52.2332 29.7138 50.8205 31.6369C49.4078 33.5599 47.4285 34.9375 45.1918 35.5543V33.5962C45.1931 32.6134 45.0686 31.6349 44.8216 30.6869C44.9468 30.631 45.0719 30.5723 45.1918 30.5079C46.3926 29.8788 47.3558 28.8419 47.9251 27.5656C48.4943 26.2892 48.6363 24.8483 48.3279 23.4765C48.0195 22.1048 47.2789 20.8827 46.2262 20.0086C45.1735 19.1346 43.8704 18.6598 42.5285 18.6613H40.6643V10.9938C40.6643 9.3357 40.0371 7.74548 38.9209 6.573C37.8046 5.40052 36.2906 4.74183 34.7119 4.74183C33.1333 4.74183 31.6193 5.40052 30.503 6.573C29.3867 7.74548 28.7596 9.3357 28.7596 10.9938C28.7681 8.5205 27.9796 6.1169 26.5225 4.17397C27.8706 2.38308 29.7163 1.07761 31.8031 0.438885C33.8899 -0.199845 36.1144 -0.140127 38.1674 0.609739C40.2204 1.35961 42.0002 2.7624 43.2595 4.62328C44.5188 6.48417 45.1951 8.71077 45.1944 10.9938V14.2891C47.4313 14.9071 49.4104 16.2858 50.8226 18.2099C52.2348 20.1339 53.0006 22.495 53.0004 24.9245Z" fill="url(#paint2_linear_3492_2884)"/>
<defs>
<linearGradient id="paint0_linear_3492_2884" x1="7.84767" y1="24.9997" x2="45.1916" y2="24.9997" gradientUnits="userSpaceOnUse">
<stop stop-color="#FFDA91"/>
<stop offset="0.06" stop-color="#FFC9A5"/>
<stop offset="0.17" stop-color="#FFB1C2"/>
<stop offset="0.29" stop-color="#FF9FD6"/>
<stop offset="0.39" stop-color="#FF95E3"/>
<stop offset="0.5" stop-color="#FF91E7"/>
<stop offset="0.61" stop-color="#FF95E3"/>
<stop offset="0.71" stop-color="#FF9FD6"/>
<stop offset="0.83" stop-color="#FFB1C2"/>
<stop offset="0.94" stop-color="#FFC9A5"/>
<stop offset="1" stop-color="#FFDA91"/>
</linearGradient>
<linearGradient id="paint1_linear_3492_2884" x1="-0.00645872" y1="32.1387" x2="26.5194" y2="32.1387" gradientUnits="userSpaceOnUse">
<stop stop-color="#A091FF"/>
<stop offset="0.22" stop-color="#C091F7"/>
<stop offset="0.51" stop-color="#E291EE"/>
<stop offset="0.75" stop-color="#F791E9"/>
<stop offset="0.9" stop-color="#FF91E7"/>
</linearGradient>
<linearGradient id="paint2_linear_3492_2884" x1="15606.7" y1="15081.8" x2="12974" y2="15081.8" gradientUnits="userSpaceOnUse">
<stop stop-color="#A091FF"/>
<stop offset="0.22" stop-color="#C091F7"/>
<stop offset="0.51" stop-color="#E291EE"/>
<stop offset="0.75" stop-color="#F791E9"/>
<stop offset="0.9" stop-color="#FF91E7"/>
</linearGradient>
</defs>
</svg>
