<svg width="443" height="100" viewBox="0 0 443 100" fill="none" xmlns="http://www.w3.org/2000/svg">
<g clip-path="url(#clip0_3501_3918)">
<path d="M167.54 45.4597C169.929 46.1229 172.023 47.6279 173.463 49.7175C175.164 52.0464 176.05 54.9077 175.977 57.8303C176.031 59.6736 175.693 61.5066 174.987 63.1989C174.282 64.8911 173.227 66.4012 171.896 67.6216C169.136 70.1736 165.542 71.5344 161.849 71.4262H136.144V21.1772H160.12C164.123 21.1772 167.479 22.3802 170.189 24.786C172.899 27.1919 174.251 30.3755 174.244 34.3367C174.244 37.2574 173.615 39.6819 172.359 41.6103C171.21 43.4155 169.514 44.7702 167.54 45.4597ZM146.498 29.5138V42.2369H157.999C158.778 42.2502 159.551 42.0932 160.268 41.7761C160.985 41.459 161.63 40.9888 162.161 40.3962C162.721 39.7953 163.159 39.0846 163.452 38.3055C163.744 37.5263 163.883 36.6945 163.863 35.8586C163.885 35.0251 163.745 34.1954 163.453 33.4188C163.161 32.6423 162.722 31.9346 162.161 31.3378C161.628 30.7496 160.982 30.2835 160.265 29.9694C159.549 29.6553 158.777 29.5002 157.999 29.5138H146.498ZM159.749 63.0504C160.527 63.0645 161.3 62.9096 162.018 62.5955C162.736 62.2814 163.382 61.8151 163.916 61.2265C165.015 59.9979 165.626 58.3828 165.626 56.7057C165.626 55.0285 165.015 53.4135 163.916 52.1849C163.383 51.5999 162.739 51.1362 162.024 50.8232C161.31 50.5102 160.54 50.3547 159.765 50.3665H146.498V63.0504H159.749Z" fill="white"/>
<path d="M182.191 17.6021H191.883V71.4263H182.191V17.6021Z" fill="white"/>
<path d="M217.954 71.9858C214.409 72.0246 210.904 71.1966 207.724 69.5687C204.642 67.9743 202.05 65.5172 200.239 62.4742C198.385 59.2068 197.407 55.4829 197.407 51.6898C197.407 47.8967 198.385 44.1728 200.239 40.9054C202.037 37.8511 204.622 35.3816 207.702 33.7773C210.896 32.1885 214.392 31.3638 217.932 31.3638C221.473 31.3638 224.969 32.1885 228.163 33.7773C231.253 35.376 233.851 37.8412 235.663 40.8942C237.531 44.1567 238.517 47.8825 238.517 51.6786C238.517 55.4748 237.531 59.2006 235.663 62.463C233.852 65.5142 231.258 67.9806 228.173 69.5855C224.996 71.2089 221.495 72.0312 217.954 71.9858ZM217.954 63.4366C219.389 63.46 220.814 63.1766 222.139 62.6039C223.465 62.0313 224.663 61.1815 225.659 60.1075C227.703 57.8178 228.839 54.8101 228.839 51.687C228.839 48.5639 227.703 45.5562 225.659 43.2665C223.6 41.1539 220.823 39.9692 217.93 39.9692C215.036 39.9692 212.259 41.1539 210.2 43.2665C208.126 45.456 207.088 48.261 207.088 51.6814C207.038 53.2372 207.292 54.7875 207.834 56.2386C208.376 57.6897 209.196 59.0115 210.243 60.1243C211.242 61.1952 212.442 62.0414 213.768 62.6102C215.094 63.1791 216.519 63.4584 217.954 63.431V63.4366Z" fill="white"/>
<path d="M263.802 71.9858C260.257 72.0246 256.752 71.1966 253.572 69.5687C250.489 67.9758 247.896 65.5183 246.087 62.4742C244.233 59.2068 243.255 55.4829 243.255 51.6898C243.255 47.8967 244.233 44.1728 246.087 40.9054C247.883 37.8499 250.469 35.3801 253.55 33.7773C256.744 32.1885 260.239 31.3638 263.78 31.3638C267.321 31.3638 270.817 32.1885 274.011 33.7773C277.1 35.3778 279.697 37.8426 281.511 40.8942C283.375 44.1579 284.359 47.8832 284.359 51.6786C284.359 55.474 283.375 59.1994 281.511 62.463C279.698 65.5131 277.105 67.9791 274.021 69.5855C270.843 71.2083 267.342 72.0306 263.802 71.9858ZM263.802 63.4366C265.237 63.459 266.661 63.1752 267.987 62.6025C269.312 62.0299 270.51 61.1807 271.507 60.1075C273.551 57.8178 274.687 54.8101 274.687 51.687C274.687 48.5639 273.551 45.5562 271.507 43.2665C269.448 41.1539 266.671 39.9692 263.778 39.9692C260.884 39.9692 258.107 41.1539 256.048 43.2665C253.941 45.4672 252.889 48.2778 252.893 51.6982C252.897 55.1186 253.961 57.9273 256.086 60.1243C257.085 61.1959 258.286 62.0425 259.613 62.6113C260.94 63.1802 262.366 63.4592 263.802 63.431V63.4366Z" fill="white"/>
<path d="M339.425 31.3713C341.747 31.3043 344.054 31.7705 346.182 32.7365C348.005 33.618 349.531 35.0464 350.565 36.8377C351.686 38.796 352.468 40.9435 352.875 43.1824C353.384 45.9894 353.622 48.842 353.586 51.6981V71.4262H343.894V51.6813C343.894 47.8282 343.264 44.9076 342.004 42.9195C340.744 40.9314 338.732 39.9392 335.968 39.9429C333.021 39.9429 330.724 41.006 329.076 43.1321C327.429 45.2582 326.594 48.1079 326.573 51.6813V71.4094H316.881V51.6813C316.881 47.8282 316.251 44.9076 314.991 42.9195C313.731 40.9314 311.708 39.9392 308.923 39.9429C305.976 39.9429 303.682 41.006 302.041 43.1321C300.401 45.2582 299.575 48.1079 299.565 51.6813V71.4094H289.873V31.97H299.161L299.565 37.7496C301.632 33.4974 305.915 31.3713 312.412 31.3713C318.729 31.3713 322.899 34.152 324.92 39.7135C327.533 34.152 332.368 31.3713 339.425 31.3713Z" fill="white"/>
<path d="M383.275 31.97V39.8534H373.901V71.4262H364.209V39.8534H359.046V31.97H364.209V29.7935C364.209 25.3585 365.13 22.0892 366.971 19.9854C368.813 17.8817 371.893 16.8298 376.211 16.8298C378.583 16.8609 380.949 17.0722 383.291 17.4621V24.7356C380.822 24.1985 378.822 24.1519 377.293 24.5957C376.78 24.6301 376.281 24.7855 375.834 25.0502C375.387 25.3148 375.004 25.6818 374.714 26.1232C374.119 27.2394 373.843 28.5087 373.917 29.7823V31.9924L383.275 31.97Z" fill="white"/>
<path d="M398.271 31.97V51.6813C398.271 55.5381 398.912 58.4569 400.193 60.4375C401.475 62.4181 403.553 63.4122 406.428 63.4197C409.487 63.4197 411.849 62.3566 413.514 60.2305C415.18 58.1044 416.009 55.2546 416.002 51.6813V31.97H425.694V71.4261H416.384L415.98 65.6073C413.686 69.8595 409.404 71.9856 403.133 71.9856C397.964 71.9856 394.243 70.2568 391.971 66.799C389.699 63.3413 388.563 58.3058 388.563 51.6925V31.97H398.271Z" fill="white"/>
<path d="M432.752 17.6021H442.444V71.4263H432.752V17.6021Z" fill="white"/>
<path d="M91.378 67.2187V78.0227C91.378 83.8529 89.1492 89.4444 85.1818 93.567C81.2145 97.6896 75.8336 100.006 70.2229 100.006C64.6121 100.006 59.2312 97.6896 55.2639 93.567C51.2965 89.4444 49.0677 83.8529 49.0677 78.0227V21.9885C49.0677 20.3463 48.7564 18.7202 48.1516 17.2031C47.5469 15.6859 46.6604 14.3074 45.543 13.1462C44.4255 11.985 43.0989 11.0639 41.6388 10.4355C40.1788 9.80703 38.614 9.48358 37.0336 9.48358C35.4533 9.48358 33.8884 9.80703 32.4284 10.4355C30.9683 11.0639 29.6417 11.985 28.5242 13.1462C27.4068 14.3074 26.5204 15.6859 25.9156 17.2031C25.3108 18.7202 24.9996 20.3463 24.9996 21.9885V34.9801C25.2334 36.2117 25.6436 37.3999 26.2164 38.505C27.464 40.9155 29.4204 42.8485 31.8 44.0217C32.0585 44.1448 32.3385 44.2679 32.5915 44.3742V21.9941C32.59 21.4877 32.6701 20.9847 32.8284 20.5058C33.1273 19.5934 33.6935 18.8011 34.4477 18.24C35.2018 17.6789 36.1061 17.3772 37.0336 17.3772C37.9611 17.3772 38.8654 17.6789 39.6196 18.24C40.3737 18.8011 40.9399 19.5934 41.2388 20.5058C41.3971 20.9847 41.4772 21.4877 41.4757 21.9941V78.0227C41.4757 79.2469 41.0077 80.421 40.1747 81.2867C39.3416 82.1523 38.2117 82.6386 37.0336 82.6386C35.8555 82.6386 34.7256 82.1523 33.8926 81.2867C33.0595 80.421 32.5915 79.2469 32.5915 78.0227C32.5915 78.0227 32.5431 53.8913 32.5215 53.9641C27.8025 52.8999 23.5769 50.1877 20.5486 46.2794C17.5202 42.3711 15.872 37.5025 15.8784 32.4848V21.9885C15.8784 16.1583 18.1073 10.5668 22.0746 6.44424C26.042 2.32165 31.4229 0.00561523 37.0336 0.00561523C42.6443 0.00561523 48.0252 2.32165 51.9926 6.44424C55.96 10.5668 58.1888 16.1583 58.1888 21.9885V78.0227C58.1871 79.8895 58.5887 81.7329 59.3641 83.4169C60.1394 85.1009 61.2687 86.5825 62.6686 87.7525C64.8061 89.536 67.4654 90.5082 70.2067 90.5082C72.9481 90.5082 75.6073 89.536 77.7448 87.7525C79.1438 86.5817 80.2725 85.0999 81.0477 83.4161C81.823 81.7323 82.2251 79.8893 82.2246 78.0227V64.7122C81.7099 62.0299 80.3746 59.5924 78.4179 57.7631C77.5025 56.8811 76.4619 56.1508 75.3326 55.5978C75.1119 55.4971 74.8911 55.3964 74.665 55.3069V78.0004C74.663 78.3776 74.6178 78.7532 74.5303 79.1194C74.2887 80.1162 73.7337 81.0006 72.9534 81.6325C72.1731 82.2644 71.2121 82.6075 70.2229 82.6075C69.2336 82.6075 68.2726 82.2644 67.4923 81.6325C66.7121 81.0006 66.157 80.1162 65.9154 79.1194C65.8279 78.7532 65.7827 78.3776 65.7808 78.0004V21.9885C65.7808 20.7643 66.2488 19.5902 67.0818 18.7246C67.9149 17.8589 69.0447 17.3726 70.2229 17.3726C71.401 17.3726 72.5308 17.8589 73.3639 18.7246C74.1969 19.5902 74.665 20.7643 74.665 21.9885V45.6667V45.717C77.3891 46.3179 79.9702 47.4783 82.2569 49.13C85.0743 51.1497 87.3768 53.8512 88.9658 57.0015C90.5548 60.1518 91.3827 63.6564 91.378 67.2131V67.2187Z" fill="url(#paint0_linear_3501_3918)"/>
<path d="M53.6336 91.6579C50.9083 95.2395 47.1773 97.8505 42.9588 99.1282C38.7403 100.406 34.2436 100.287 30.0931 98.7878C25.9427 97.2886 22.3444 94.4838 19.7981 90.7626C17.2517 87.0415 15.8836 82.5888 15.8838 78.0228V71.1465C11.3412 69.9268 7.31737 67.1734 4.44459 63.3188C1.57182 59.4643 0.0129395 54.7271 0.0129395 49.8518C0.0129395 44.9765 1.57182 40.2393 4.44459 36.3848C7.31737 32.5302 11.3412 29.7768 15.8838 28.5571V32.4737C15.8788 34.4255 16.1251 36.3693 16.616 38.2533C16.3684 38.3596 16.1153 38.4715 15.8784 38.6002C13.432 39.8394 11.4621 41.9038 10.2902 44.4563C9.11838 47.0087 8.81376 49.8986 9.4261 52.6541C10.0384 55.4097 11.5316 57.8682 13.6618 59.6283C15.792 61.3885 18.4335 62.3463 21.1551 62.3455H24.9995V78.0116C24.9995 81.3281 26.2674 84.5088 28.5242 86.8539C30.781 89.199 33.8419 90.5165 37.0336 90.5165C40.2252 90.5165 43.2861 89.199 45.5429 86.8539C47.7998 84.5088 49.0676 81.3281 49.0676 78.0116C49.0585 82.9664 50.6683 87.7777 53.6336 91.6579Z" fill="url(#paint1_linear_3501_3918)"/>
<path d="M107.165 49.8518C107.164 54.71 105.614 59.4311 102.758 63.2775C99.9016 67.1239 95.9 69.8791 91.3779 71.1129V67.1964C91.3806 65.2307 91.1289 63.2735 90.6295 61.3775C90.8826 61.2656 91.1356 61.1481 91.3779 61.0194C93.8057 59.7611 95.753 57.6872 96.904 55.1343C98.0549 52.5815 98.3419 49.6993 97.7184 46.9556C97.095 44.2119 95.5976 41.7677 93.4693 40.0194C91.341 38.2711 88.7066 37.3215 85.9936 37.3245H82.2245V21.9885C82.2245 18.672 80.9567 15.4913 78.6998 13.1462C76.443 10.8011 73.3821 9.48359 70.1905 9.48359C66.9988 9.48359 63.9379 10.8011 61.6811 13.1462C59.4243 15.4913 58.1564 18.672 58.1564 21.9885C58.1736 17.0415 56.5795 12.2339 53.6335 8.3478C56.3591 4.76577 60.0906 2.15465 64.3096 0.8771C68.5286 -0.40045 73.0258 -0.281006 77.1765 1.21883C81.3273 2.71867 84.9254 5.52446 87.4714 9.24649C90.0173 12.9685 91.3846 17.422 91.3833 21.9885V28.5794C95.9058 29.8156 99.9069 32.5732 102.762 36.4216C105.617 40.27 107.165 44.9925 107.165 49.8518Z" fill="url(#paint2_linear_3501_3918)"/>
</g>
<defs>
<linearGradient id="paint0_linear_3501_3918" x1="15.8784" y1="50.0028" x2="91.378" y2="50.0028" gradientUnits="userSpaceOnUse">
<stop stop-color="#FFDA91"/>
<stop offset="0.06" stop-color="#FFC9A5"/>
<stop offset="0.17" stop-color="#FFB1C2"/>
<stop offset="0.29" stop-color="#FF9FD6"/>
<stop offset="0.39" stop-color="#FF95E3"/>
<stop offset="0.5" stop-color="#FF91E7"/>
<stop offset="0.61" stop-color="#FF95E3"/>
<stop offset="0.71" stop-color="#FF9FD6"/>
<stop offset="0.83" stop-color="#FFB1C2"/>
<stop offset="0.94" stop-color="#FFC9A5"/>
<stop offset="1" stop-color="#FFDA91"/>
</linearGradient>
<linearGradient id="paint1_linear_3501_3918" x1="-0.000118375" y1="64.2814" x2="53.6282" y2="64.2814" gradientUnits="userSpaceOnUse">
<stop stop-color="#A091FF"/>
<stop offset="0.22" stop-color="#C091F7"/>
<stop offset="0.51" stop-color="#E291EE"/>
<stop offset="0.75" stop-color="#F791E9"/>
<stop offset="0.9" stop-color="#FF91E7"/>
</linearGradient>
<linearGradient id="paint2_linear_3501_3918" x1="31552.6" y1="30165.7" x2="26229.9" y2="30165.7" gradientUnits="userSpaceOnUse">
<stop stop-color="#A091FF"/>
<stop offset="0.22" stop-color="#C091F7"/>
<stop offset="0.51" stop-color="#E291EE"/>
<stop offset="0.75" stop-color="#F791E9"/>
<stop offset="0.9" stop-color="#FF91E7"/>
</linearGradient>
<clipPath id="clip0_3501_3918">
<rect width="442.466" height="100" fill="white"/>
</clipPath>
</defs>
</svg>
