<svg width="532" height="994" viewBox="0 0 532 994" fill="none" xmlns="http://www.w3.org/2000/svg">
<g opacity="0.3">
<path d="M375.238 775.496C375.238 833.445 353.106 889.02 313.711 929.995C274.316 970.971 220.884 993.991 165.171 993.991C109.458 993.991 56.0264 970.971 16.6312 929.995C-22.764 889.02 -44.896 833.445 -44.896 775.496V218.556C-44.896 202.234 -47.9869 186.072 -53.9921 170.992C-59.9973 155.913 -68.7993 142.211 -79.8955 130.67C-90.9917 119.128 -104.165 109.973 -118.663 103.727C-133.161 97.4809 -148.699 94.266 -164.392 94.266C-180.084 94.266 -195.623 97.4809 -210.121 103.727C-224.619 109.973 -237.792 119.128 -248.888 130.67C-259.985 142.211 -268.787 155.913 -274.792 170.992C-280.797 186.072 -283.888 202.234 -283.888 218.556V347.684C-281.566 359.924 -277.493 371.734 -271.805 382.719C-259.417 406.677 -239.99 425.889 -216.361 437.551C-213.794 438.774 -211.014 439.997 -208.501 441.054V218.611C-208.516 213.579 -207.721 208.579 -206.149 203.819C-203.181 194.75 -197.559 186.875 -190.07 181.298C-182.581 175.722 -173.602 172.723 -164.392 172.723C-155.182 172.723 -146.203 175.722 -138.714 181.298C-131.225 186.875 -125.603 194.75 -122.635 203.819C-121.063 208.579 -120.268 213.579 -120.283 218.611V775.496C-120.283 787.664 -124.93 799.334 -133.202 807.938C-141.474 816.542 -152.693 821.375 -164.392 821.375C-176.09 821.375 -187.31 816.542 -195.582 807.938C-203.854 799.334 -208.501 787.664 -208.501 775.496C-208.501 775.496 -208.982 535.648 -209.196 536.371C-256.055 525.793 -298.014 498.837 -328.085 459.99C-358.156 421.144 -374.523 372.754 -374.459 322.881V218.556C-374.459 160.608 -352.327 105.033 -312.932 64.0571C-273.536 23.0815 -220.105 0.0617457 -164.392 0.0617457C-108.679 0.0617457 -55.2473 23.0815 -15.8521 64.0571C23.5432 105.033 45.675 160.608 45.675 218.556V775.496C45.6582 794.051 49.6465 812.373 57.3455 829.111C65.0445 845.848 76.2579 860.574 90.1586 872.203C111.384 889.93 137.79 899.593 165.011 899.593C192.232 899.593 218.638 889.93 239.863 872.203C253.755 860.566 264.962 845.839 272.66 829.103C280.358 812.367 284.351 794.049 284.346 775.496V643.199C279.235 616.539 265.976 592.312 246.546 574.13C237.456 565.364 227.123 558.105 215.91 552.609C213.718 551.608 211.526 550.607 209.28 549.717V775.274C209.261 779.023 208.812 782.757 207.944 786.396C205.544 796.304 200.033 805.095 192.285 811.375C184.536 817.656 174.994 821.066 165.171 821.066C155.348 821.066 145.806 817.656 138.058 811.375C130.309 805.095 124.798 796.304 122.398 786.396C121.53 782.757 121.081 779.023 121.062 775.274V218.556C121.062 206.388 125.709 194.719 133.981 186.115C142.253 177.511 153.473 172.677 165.171 172.677C176.87 172.677 188.089 177.511 196.361 186.115C204.633 194.719 209.28 206.388 209.28 218.556V454.401C236.33 460.373 261.961 471.906 284.667 488.323C312.644 508.398 335.507 535.248 351.285 566.56C367.064 597.872 375.284 632.705 375.238 668.057V775.496Z" fill="#FAF6F6" fill-opacity="0.2"/>
<path d="M0.442871 911.021C-26.6189 946.621 -63.6665 972.572 -105.556 985.271C-147.445 997.971 -192.096 996.788 -233.309 981.887C-274.523 966.987 -310.253 939.109 -335.537 902.123C-360.822 865.138 -374.407 820.881 -374.406 775.498V707.153C-419.512 695.03 -459.468 667.663 -487.995 629.351C-516.521 591.04 -532 543.956 -532 495.499C-532 447.041 -516.521 399.958 -487.995 361.646C-459.468 323.335 -419.512 295.967 -374.406 283.845V322.772C-374.455 342.172 -372.009 361.492 -367.134 380.218C-369.594 381.274 -372.107 382.387 -374.459 383.666C-398.751 395.983 -418.312 416.501 -429.948 441.871C-441.585 467.24 -444.609 495.964 -438.529 523.352C-432.449 550.74 -417.622 575.176 -396.469 592.67C-375.317 610.165 -349.087 619.685 -322.063 619.677H-283.888V775.387C-283.888 808.351 -271.298 839.964 -248.889 863.273C-226.479 886.582 -196.084 899.677 -164.392 899.677C-132.7 899.677 -102.305 886.582 -79.8956 863.273C-57.4858 839.964 -44.8961 808.351 -44.8961 775.387C-44.9867 824.634 -29.0015 872.455 0.442871 911.021Z" fill="#FAF6F6" fill-opacity="0.2"/>
<path d="M532 495.498C531.986 543.786 516.598 590.71 488.237 628.941C459.877 667.171 420.142 694.556 375.238 706.819V667.891C375.265 648.354 372.765 628.901 367.807 610.056C370.32 608.944 372.832 607.776 375.238 606.497C399.345 593.99 418.682 573.377 430.111 548.004C441.539 522.63 444.389 493.983 438.198 466.713C432.007 439.443 417.139 415.148 396.005 397.772C374.871 380.395 348.712 370.956 321.773 370.986H284.346V218.557C284.346 185.594 271.757 153.98 249.347 130.671C226.937 107.362 196.543 94.2675 164.851 94.2675C133.158 94.2675 102.764 107.362 80.3542 130.671C57.9444 153.98 45.3546 185.594 45.3546 218.557C45.5252 169.387 29.6967 121.604 0.443359 82.9785C27.508 47.3757 64.5605 21.423 106.455 8.72503C148.349 -3.97291 193.005 -2.78572 234.221 12.1216C275.437 27.0289 311.166 54.9165 336.447 91.9109C361.728 128.905 375.304 173.17 375.292 218.557V284.067C420.199 296.353 459.929 323.761 488.28 362.012C516.63 400.262 532.004 447.201 532 495.498Z" fill="#FAF6F6" fill-opacity="0.2"/>
</g>
</svg>
