<svg width="149" height="145" viewBox="0 0 149 145" fill="none" xmlns="http://www.w3.org/2000/svg">
<g filter="url(#filter0_b_5636_29433)">
<mask id="path-1-inside-1_5636_29433" fill="white">
<path d="M83.6518 76.3152C104.882 76.3152 122.092 59.2315 122.092 38.1576C122.092 17.0837 104.882 0 83.6518 0C62.4219 0 45.2117 17.0837 45.2117 38.1576C45.2117 59.2315 62.4219 76.3152 83.6518 76.3152Z"/>
<path d="M18.3037 118.289C18.3037 100.376 32.9324 85.8546 50.9777 85.8546H116.326C134.371 85.8546 149 100.376 149 118.289C149 127.772 141.255 135.46 131.702 135.46H35.6017C26.0483 135.46 18.3037 127.772 18.3037 118.289Z"/>
</mask>
<path d="M83.6518 76.3152C104.882 76.3152 122.092 59.2315 122.092 38.1576C122.092 17.0837 104.882 0 83.6518 0C62.4219 0 45.2117 17.0837 45.2117 38.1576C45.2117 59.2315 62.4219 76.3152 83.6518 76.3152Z" fill="#FAF6F6" fill-opacity="0.2"/>
<path d="M18.3037 118.289C18.3037 100.376 32.9324 85.8546 50.9777 85.8546H116.326C134.371 85.8546 149 100.376 149 118.289C149 127.772 141.255 135.46 131.702 135.46H35.6017C26.0483 135.46 18.3037 127.772 18.3037 118.289Z" fill="#FAF6F6" fill-opacity="0.2"/>
<path d="M120.092 38.1576C120.092 58.113 103.791 74.3152 83.6518 74.3152V78.3152C105.972 78.3152 124.092 60.3499 124.092 38.1576H120.092ZM83.6518 74.3152C63.5126 74.3152 47.2117 58.113 47.2117 38.1576H43.2117C43.2117 60.3499 61.3313 78.3152 83.6518 78.3152V74.3152ZM47.2117 38.1576C47.2117 18.2022 63.5126 2 83.6518 2V-2C61.3313 -2 43.2117 15.9653 43.2117 38.1576H47.2117ZM83.6518 2C103.791 2 120.092 18.2022 120.092 38.1576H124.092C124.092 15.9653 105.972 -2 83.6518 -2V2ZM50.9777 87.8546H116.326V83.8546H50.9777V87.8546ZM131.702 133.46H35.6017V137.46H131.702V133.46ZM35.6017 133.46C27.1389 133.46 20.3037 126.653 20.3037 118.289H16.3037C16.3037 128.89 24.9577 137.46 35.6017 137.46V133.46ZM147 118.289C147 126.653 140.165 133.46 131.702 133.46V137.46C142.346 137.46 151 128.89 151 118.289H147ZM116.326 87.8546C133.281 87.8546 147 101.494 147 118.289H151C151 99.2574 135.462 83.8546 116.326 83.8546V87.8546ZM50.9777 83.8546C31.8417 83.8546 16.3037 99.2574 16.3037 118.289H20.3037C20.3037 101.494 34.023 87.8546 50.9777 87.8546V83.8546Z" fill="#FAF6F6" fill-opacity="0.4" mask="url(#path-1-inside-1_5636_29433)"/>
</g>
<g filter="url(#filter1_b_5636_29433)">
<mask id="path-3-inside-2_5636_29433" fill="white">
<path d="M65.348 85.8555C86.5779 85.8555 103.788 68.7718 103.788 47.6979C103.788 26.624 86.5779 9.54028 65.348 9.54028C44.1182 9.54028 26.908 26.624 26.908 47.6979C26.908 68.7718 44.1182 85.8555 65.348 85.8555Z"/>
<path d="M0 127.829C0 109.916 14.6287 95.3949 32.674 95.3949H98.0221C116.067 95.3949 130.696 109.916 130.696 127.829C130.696 137.312 122.952 145 113.398 145H17.298C7.74458 145 0 137.312 0 127.829Z"/>
</mask>
<path d="M65.348 85.8555C86.5779 85.8555 103.788 68.7718 103.788 47.6979C103.788 26.624 86.5779 9.54028 65.348 9.54028C44.1182 9.54028 26.908 26.624 26.908 47.6979C26.908 68.7718 44.1182 85.8555 65.348 85.8555Z" fill="#FAF6F6" fill-opacity="0.2"/>
<path d="M0 127.829C0 109.916 14.6287 95.3949 32.674 95.3949H98.0221C116.067 95.3949 130.696 109.916 130.696 127.829C130.696 137.312 122.952 145 113.398 145H17.298C7.74458 145 0 137.312 0 127.829Z" fill="#FAF6F6" fill-opacity="0.2"/>
<path d="M101.788 47.6979C101.788 67.6533 85.4873 83.8555 65.348 83.8555V87.8555C87.6685 87.8555 105.788 69.8902 105.788 47.6979H101.788ZM65.348 83.8555C45.2088 83.8555 28.908 67.6533 28.908 47.6979H24.908C24.908 69.8902 43.0276 87.8555 65.348 87.8555V83.8555ZM28.908 47.6979C28.908 27.7425 45.2088 11.5403 65.348 11.5403V7.54028C43.0276 7.54028 24.908 25.5056 24.908 47.6979H28.908ZM65.348 11.5403C85.4873 11.5403 101.788 27.7425 101.788 47.6979H105.788C105.788 25.5056 87.6685 7.54028 65.348 7.54028V11.5403ZM32.674 97.3949H98.0221V93.3949H32.674V97.3949ZM113.398 143H17.298V147H113.398V143ZM17.298 143C8.83522 143 2 136.194 2 127.829H-2C-2 138.431 6.65394 147 17.298 147V143ZM128.696 127.829C128.696 136.194 121.861 143 113.398 143V147C124.042 147 132.696 138.431 132.696 127.829H128.696ZM98.0221 97.3949C114.977 97.3949 128.696 111.035 128.696 127.829H132.696C132.696 108.798 117.158 93.3949 98.0221 93.3949V97.3949ZM32.674 93.3949C13.538 93.3949 -2 108.798 -2 127.829H2C2 111.035 15.7193 97.3949 32.674 97.3949V93.3949Z" fill="#FAF6F6" fill-opacity="0.4" mask="url(#path-3-inside-2_5636_29433)"/>
</g>
<defs>
<filter id="filter0_b_5636_29433" x="-1.69629" y="-20" width="170.696" height="175.459" filterUnits="userSpaceOnUse" color-interpolation-filters="sRGB">
<feFlood flood-opacity="0" result="BackgroundImageFix"/>
<feGaussianBlur in="BackgroundImage" stdDeviation="10"/>
<feComposite in2="SourceAlpha" operator="in" result="effect1_backgroundBlur_5636_29433"/>
<feBlend mode="normal" in="SourceGraphic" in2="effect1_backgroundBlur_5636_29433" result="shape"/>
</filter>
<filter id="filter1_b_5636_29433" x="-20" y="-10.4597" width="170.696" height="175.459" filterUnits="userSpaceOnUse" color-interpolation-filters="sRGB">
<feFlood flood-opacity="0" result="BackgroundImageFix"/>
<feGaussianBlur in="BackgroundImage" stdDeviation="10"/>
<feComposite in2="SourceAlpha" operator="in" result="effect1_backgroundBlur_5636_29433"/>
<feBlend mode="normal" in="SourceGraphic" in2="effect1_backgroundBlur_5636_29433" result="shape"/>
</filter>
</defs>
</svg>
