<svg width="59" height="50" viewBox="0 0 59 50" fill="none" xmlns="http://www.w3.org/2000/svg">
<g filter="url(#filter0_b_5299_24091)">
<mask id="path-1-inside-1_5299_24091" fill="white">
<path d="M50.6133 30.6109C48.6283 30.3416 46.6818 29.8608 44.8124 29.1683C43.6753 28.7451 42.4419 28.6489 41.2471 28.899C40.0522 29.1491 38.9729 29.7453 38.0864 30.6109L36.3327 32.3613C32.0542 29.6876 28.4503 26.0714 25.7522 21.8012L27.506 20.0508C28.3733 19.1852 28.9514 18.1081 29.202 16.9155C29.4525 15.7229 29.3561 14.4918 28.9321 13.357C28.2384 11.4912 27.7373 9.5484 27.4867 7.54794C27.2747 6.02836 26.5039 4.62419 25.3283 3.62396C24.1527 2.62373 22.6302 2.04667 21.1462 2.08514H14.5359C13.6493 2.08514 12.7821 2.27749 11.9727 2.62373C11.1632 2.9892 10.4502 3.48931 9.85272 4.14331C9.25529 4.7973 8.79276 5.56671 8.50367 6.41306C8.23386 7.24017 8.11823 8.12499 8.19532 9.02905C8.94693 16.1268 11.4138 23.0515 15.2875 29.0336C18.8143 34.5734 23.6323 39.3822 29.1634 42.883C35.1378 46.7493 42.0372 49.2114 49.1679 49.9808C49.3606 49.9808 49.5533 50 49.7461 50C50.4399 50 51.1144 49.8846 51.7696 49.673C52.6176 49.3845 53.3692 48.9421 54.0245 48.3458C54.6797 47.7495 55.2001 47.0185 55.547 46.2107C55.9132 45.4028 56.0866 44.5372 56.0866 43.6524V37.0355C56.1251 35.4774 55.5855 33.9771 54.5834 32.8037C53.5812 31.6112 52.1744 30.8418 50.594 30.6109H50.6133Z"/>
<path d="M42.875 15.2967C44.1556 16.5773 45.0158 18.202 45.3598 19.9796C45.5319 20.897 46.3347 21.5278 47.233 21.5278C47.3477 21.5278 47.4815 21.5278 47.5962 21.4896C48.6284 21.2793 49.3165 20.2854 49.1062 19.2532C48.6093 16.7302 47.386 14.4175 45.5701 12.6017C43.7542 10.7859 41.4414 9.56258 38.9183 9.06562C37.8861 8.85537 36.8731 9.54347 36.6819 10.5756C36.4717 11.6077 37.1598 12.6208 38.192 12.8119C39.9696 13.156 41.5943 14.0161 42.875 15.2967Z"/>
<path d="M51.8751 6.31953C48.3556 2.79803 43.7144 0.5729 38.7831 0.0117812C37.7195 -0.104312 36.7719 0.650295 36.6559 1.71449C36.5398 2.77868 37.294 3.72677 38.3576 3.84287C42.4187 4.28789 46.2477 6.12604 49.1484 9.02838C52.0492 11.9114 53.8863 15.7425 54.3311 19.8057C54.4471 20.7925 55.2787 21.5278 56.2456 21.5278C56.323 21.5278 56.4003 21.5278 56.4583 21.5278C57.5219 21.4117 58.2761 20.4442 58.1601 19.38C57.5993 14.4461 55.3754 9.80233 51.8558 6.30018L51.8751 6.31953Z"/>
</mask>
<path d="M50.6133 30.6109C48.6283 30.3416 46.6818 29.8608 44.8124 29.1683C43.6753 28.7451 42.4419 28.6489 41.2471 28.899C40.0522 29.1491 38.9729 29.7453 38.0864 30.6109L36.3327 32.3613C32.0542 29.6876 28.4503 26.0714 25.7522 21.8012L27.506 20.0508C28.3733 19.1852 28.9514 18.1081 29.202 16.9155C29.4525 15.7229 29.3561 14.4918 28.9321 13.357C28.2384 11.4912 27.7373 9.5484 27.4867 7.54794C27.2747 6.02836 26.5039 4.62419 25.3283 3.62396C24.1527 2.62373 22.6302 2.04667 21.1462 2.08514H14.5359C13.6493 2.08514 12.7821 2.27749 11.9727 2.62373C11.1632 2.9892 10.4502 3.48931 9.85272 4.14331C9.25529 4.7973 8.79276 5.56671 8.50367 6.41306C8.23386 7.24017 8.11823 8.12499 8.19532 9.02905C8.94693 16.1268 11.4138 23.0515 15.2875 29.0336C18.8143 34.5734 23.6323 39.3822 29.1634 42.883C35.1378 46.7493 42.0372 49.2114 49.1679 49.9808C49.3606 49.9808 49.5533 50 49.7461 50C50.4399 50 51.1144 49.8846 51.7696 49.673C52.6176 49.3845 53.3692 48.9421 54.0245 48.3458C54.6797 47.7495 55.2001 47.0185 55.547 46.2107C55.9132 45.4028 56.0866 44.5372 56.0866 43.6524V37.0355C56.1251 35.4774 55.5855 33.9771 54.5834 32.8037C53.5812 31.6112 52.1744 30.8418 50.594 30.6109H50.6133Z" fill="#FAF6F6" fill-opacity="0.2"/>
<path d="M42.875 15.2967C44.1556 16.5773 45.0158 18.202 45.3598 19.9796C45.5319 20.897 46.3347 21.5278 47.233 21.5278C47.3477 21.5278 47.4815 21.5278 47.5962 21.4896C48.6284 21.2793 49.3165 20.2854 49.1062 19.2532C48.6093 16.7302 47.386 14.4175 45.5701 12.6017C43.7542 10.7859 41.4414 9.56258 38.9183 9.06562C37.8861 8.85537 36.8731 9.54347 36.6819 10.5756C36.4717 11.6077 37.1598 12.6208 38.192 12.8119C39.9696 13.156 41.5943 14.0161 42.875 15.2967Z" fill="#FAF6F6" fill-opacity="0.2"/>
<path d="M51.8751 6.31953C48.3556 2.79803 43.7144 0.5729 38.7831 0.0117812C37.7195 -0.104312 36.7719 0.650295 36.6559 1.71449C36.5398 2.77868 37.294 3.72677 38.3576 3.84287C42.4187 4.28789 46.2477 6.12604 49.1484 9.02838C52.0492 11.9114 53.8863 15.7425 54.3311 19.8057C54.4471 20.7925 55.2787 21.5278 56.2456 21.5278C56.323 21.5278 56.4003 21.5278 56.4583 21.5278C57.5219 21.4117 58.2761 20.4442 58.1601 19.38C57.5993 14.4461 55.3754 9.80233 51.8558 6.30018L51.8751 6.31953Z" fill="#FAF6F6" fill-opacity="0.2"/>
<path d="M50.6133 30.6109V31.6109L50.7477 29.62L50.6133 30.6109ZM44.8124 29.1683L44.4636 30.1055L44.465 30.106L44.8124 29.1683ZM38.0864 30.6109L37.3878 29.8954L37.38 29.9031L38.0864 30.6109ZM36.3327 32.3613L35.8027 33.2094L36.4766 33.6305L37.0391 33.0691L36.3327 32.3613ZM25.7522 21.8012L25.0458 21.0934L24.4794 21.6588L24.9069 22.3354L25.7522 21.8012ZM27.506 20.0508L26.7996 19.343L27.506 20.0508ZM28.9321 13.357L27.9949 13.7055L27.9954 13.7069L28.9321 13.357ZM27.4867 7.54794L28.4791 7.42366L28.4771 7.40977L27.4867 7.54794ZM21.1462 2.08514V3.08514H21.1592L21.1721 3.08481L21.1462 2.08514ZM11.9727 2.62373L11.5794 1.70431L11.5702 1.70823L11.5611 1.71232L11.9727 2.62373ZM8.50367 6.41306L7.55726 6.0898L7.55298 6.10294L8.50367 6.41306ZM8.19532 9.02905L7.19894 9.11401L7.1998 9.12419L7.20088 9.13435L8.19532 9.02905ZM15.2875 29.0336L16.1311 28.4966L16.1269 28.4901L15.2875 29.0336ZM29.1634 42.883L29.7067 42.0434L29.6982 42.038L29.1634 42.883ZM49.1679 49.9808L49.0606 50.975L49.1141 50.9808H49.1679V49.9808ZM51.7696 49.673L52.0769 50.6246L52.0844 50.6222L52.0918 50.6197L51.7696 49.673ZM55.547 46.2107L54.6362 45.7978L54.6321 45.8069L54.6281 45.8161L55.547 46.2107ZM56.0866 37.0355L55.0869 37.0107L55.0866 37.0231V37.0355H56.0866ZM54.5834 32.8037L53.8178 33.4471L53.823 33.4532L54.5834 32.8037ZM50.594 30.6109V29.6109L50.4495 31.6004L50.594 30.6109ZM45.3598 19.9796L46.3427 19.7953L46.3416 19.7895L45.3598 19.9796ZM47.5962 21.4896L47.3966 20.5097L47.3374 20.5217L47.28 20.5409L47.5962 21.4896ZM49.1062 19.2532L48.1251 19.4465L48.1264 19.4529L49.1062 19.2532ZM38.9183 9.06562L38.7187 10.0455L38.7251 10.0468L38.9183 9.06562ZM36.6819 10.5756L37.6618 10.7752L37.6636 10.7665L37.6652 10.7577L36.6819 10.5756ZM38.192 12.8119L38.382 11.8301L38.3741 11.8286L38.192 12.8119ZM38.7831 0.0117812L38.8961 -0.981818L38.8916 -0.982315L38.7831 0.0117812ZM38.3576 3.84287L38.4666 2.84882L38.4661 2.84877L38.3576 3.84287ZM49.1484 9.02838L48.4411 9.73529L48.4435 9.73765L49.1484 9.02838ZM54.3311 19.8057L53.337 19.9145L53.3379 19.9225L54.3311 19.8057ZM56.4583 21.5278V22.5278H56.5127L56.5668 22.5219L56.4583 21.5278ZM58.1601 19.38L59.1542 19.2717L59.1537 19.2671L58.1601 19.38ZM51.8558 6.30018L52.5611 5.59132L51.1485 7.00709L51.8558 6.30018ZM50.7477 29.62C48.8335 29.3603 46.9585 28.8969 45.1598 28.2306L44.465 30.106C46.405 30.8246 48.4231 31.323 50.4789 31.6019L50.7477 29.62ZM45.1612 28.2311C43.8485 27.7426 42.4232 27.6312 41.0422 27.9202L41.4519 29.8778C42.4606 29.6667 43.5021 29.7477 44.4636 30.1055L45.1612 28.2311ZM41.0422 27.9202C39.6494 28.2117 38.4018 28.9054 37.3878 29.8954L38.785 31.3264C39.5441 30.5853 40.4549 30.0864 41.4519 29.8778L41.0422 27.9202ZM37.38 29.9031L35.6262 31.6535L37.0391 33.0691L38.7928 31.3187L37.38 29.9031ZM36.8626 31.5133C32.7141 28.9208 29.2171 25.4128 26.5976 21.2671L24.9069 22.3354C27.6836 26.73 31.3944 30.4545 35.8027 33.2094L36.8626 31.5133ZM26.4587 22.509L28.2124 20.7586L26.7996 19.343L25.0458 21.0934L26.4587 22.509ZM28.2124 20.7586C29.219 19.754 29.8906 18.5016 30.1806 17.1211L28.2233 16.7099C28.0123 17.7145 27.5275 18.6165 26.7996 19.343L28.2124 20.7586ZM30.1806 17.1211C30.4704 15.7416 30.3587 14.318 29.8689 13.007L27.9954 13.7069C28.3536 14.6657 28.4346 15.7042 28.2233 16.7099L30.1806 17.1211ZM29.8694 13.0084C29.1998 11.2076 28.719 9.34007 28.479 7.42367L26.4945 7.67221C26.7556 9.75672 27.2769 11.7747 27.9949 13.7055L29.8694 13.0084ZM28.4771 7.40977C28.2312 5.64677 27.338 4.02096 25.9763 2.86233L24.6802 4.38559C25.6697 5.22741 26.3183 6.40994 26.4963 7.68611L28.4771 7.40977ZM25.9763 2.86233C24.6304 1.71722 22.8724 1.04006 21.1203 1.08548L21.1721 3.08481C22.3879 3.05329 23.6749 3.53024 24.6802 4.38559L25.9763 2.86233ZM21.1462 1.08514H14.5359V3.08514H21.1462V1.08514ZM14.5359 1.08514C13.5037 1.08514 12.5031 1.30918 11.5794 1.70431L12.3659 3.54315C13.0611 3.24581 13.795 3.08514 14.5359 3.08514V1.08514ZM11.5611 1.71232C10.6379 2.12917 9.81074 2.7066 9.11441 3.46885L10.591 4.81777C11.0896 4.27203 11.6885 3.84922 12.3842 3.53513L11.5611 1.71232ZM9.11441 3.46885C8.42686 4.22149 7.89213 5.10971 7.55735 6.08983L9.44999 6.73629C9.69338 6.02372 10.0837 5.37312 10.591 4.81777L9.11441 3.46885ZM7.55298 6.10294C7.24395 7.05029 7.10985 8.06931 7.19894 9.11401L9.1917 8.94409C9.12661 8.18067 9.22378 7.43006 9.45437 6.72318L7.55298 6.10294ZM7.20088 9.13435C7.96918 16.3898 10.4898 23.4643 14.4481 29.5772L16.1269 28.4901C12.3378 22.6387 9.92468 15.8639 9.18976 8.92374L7.20088 9.13435ZM14.4439 29.5707C18.0495 35.2341 22.9728 40.1482 28.6286 43.728L29.6982 42.038C24.2919 38.6161 19.5791 33.9127 16.131 28.4966L14.4439 29.5707ZM28.6201 43.7225C34.7252 47.6734 41.7738 50.1887 49.0606 50.975L49.2752 48.9865C42.3006 48.234 35.5504 45.8251 29.7067 42.0434L28.6201 43.7225ZM49.1679 50.9808C49.2352 50.9808 49.3066 50.9841 49.4072 50.9891C49.4993 50.9937 49.6206 51 49.7461 51V49C49.6788 49 49.6074 48.9966 49.5068 48.9916C49.4146 48.987 49.2934 48.9808 49.1679 48.9808V50.9808ZM49.7461 51C50.5526 51 51.3307 50.8656 52.0769 50.6246L51.4624 48.7214C50.8981 48.9036 50.3271 49 49.7461 49V51ZM52.0918 50.6197C53.0682 50.2875 53.9396 49.7751 54.6975 49.0854L53.3514 47.6062C52.7989 48.109 52.167 48.4815 51.4475 48.7263L52.0918 50.6197ZM54.6975 49.0854C55.4582 48.3931 56.0625 47.5446 56.4659 46.6052L54.6281 45.8161C54.3377 46.4925 53.9013 47.1058 53.3514 47.6062L54.6975 49.0854ZM56.4578 46.6235C56.8869 45.6768 57.0866 44.6693 57.0866 43.6524H55.0866C55.0866 44.4052 54.9394 45.1287 54.6362 45.7978L56.4578 46.6235ZM57.0866 43.6524V37.0355H55.0866V43.6524H57.0866ZM57.0863 37.0602C57.131 35.2538 56.5049 33.5138 55.3438 32.1543L53.823 33.4532C54.6662 34.4404 55.1193 35.7011 55.0869 37.0107L57.0863 37.0602ZM55.349 32.1604C54.1833 30.7733 52.5521 29.8863 50.7386 29.6214L50.4495 31.6004C51.7966 31.7972 52.9791 32.4491 53.8178 33.4471L55.349 32.1604ZM50.594 31.6109H50.6133V29.6109H50.594V31.6109ZM42.1679 16.0038C43.3068 17.1427 44.0717 18.587 44.3781 20.1696L46.3416 19.7895C45.9598 17.817 45.0045 16.012 43.5821 14.5896L42.1679 16.0038ZM44.377 20.1639C44.6407 21.5701 45.8697 22.5278 47.233 22.5278V20.5278C46.7996 20.5278 46.4231 20.2239 46.3427 19.7953L44.377 20.1639ZM47.233 22.5278C47.3123 22.5278 47.6161 22.537 47.9124 22.4382L47.28 20.5409C47.3061 20.5322 47.3249 20.5284 47.3334 20.5269C47.342 20.5254 47.3442 20.5255 47.3379 20.5259C47.3317 20.5264 47.3207 20.527 47.3024 20.5274C47.2833 20.5277 47.2631 20.5278 47.233 20.5278V22.5278ZM47.7958 22.4694C49.3449 22.1539 50.4115 20.6509 50.0861 19.0536L48.1264 19.4529C48.2215 19.9198 47.9119 20.4047 47.3966 20.5097L47.7958 22.4694ZM50.0874 19.06C49.5526 16.3448 48.2352 13.8525 46.2772 11.8945L44.863 13.3088C46.5367 14.9825 47.666 17.1156 48.1251 19.4465L50.0874 19.06ZM46.2772 11.8945C44.3192 9.93661 41.8268 8.61927 39.1116 8.08447L38.7251 10.0468C41.056 10.5059 43.1893 11.6351 44.863 13.3088L46.2772 11.8945ZM39.1179 8.08575C37.5352 7.76334 35.9912 8.81404 35.6987 10.3935L37.6652 10.7577C37.755 10.2729 38.2371 9.9474 38.7187 10.0455L39.1179 8.08575ZM35.7021 10.376C35.3796 11.9588 36.4304 13.5027 38.0099 13.7952L38.3741 11.8286C37.8892 11.7388 37.5637 11.2567 37.6618 10.7752L35.7021 10.376ZM38.002 13.7937C39.5846 14.1 41.029 14.865 42.1679 16.0038L43.5821 14.5896C42.1596 13.1672 40.3546 12.2119 38.382 11.8301L38.002 13.7937ZM52.5824 5.61261C48.9019 1.93007 44.0508 -0.395269 38.8961 -0.981807L38.67 1.00537C43.3779 1.54107 47.8092 3.66598 51.1678 7.02644L52.5824 5.61261ZM38.8916 -0.982315C37.2836 -1.15783 35.8382 -0.0118445 35.6618 1.6061L37.65 1.82287C37.7056 1.31244 38.1554 0.949203 38.6746 1.00588L38.8916 -0.982315ZM35.6618 1.6061C35.4865 3.21358 36.6309 4.66033 38.2491 4.83696L38.4661 2.84877C37.9572 2.79322 37.5932 2.34377 37.65 1.82287L35.6618 1.6061ZM38.2487 4.83692C42.0828 5.25707 45.7009 6.99354 48.4411 9.73529L49.8557 8.32146C46.7945 5.25854 42.7546 3.31871 38.4666 2.84882L38.2487 4.83692ZM48.4435 9.73765C51.1813 12.4586 52.917 16.0775 53.337 19.9145L55.3252 19.6969C54.8556 15.4074 52.9171 11.3641 49.8534 8.3191L48.4435 9.73765ZM53.3379 19.9225C53.5126 21.4075 54.7661 22.5278 56.2456 22.5278V20.5278C55.7913 20.5278 55.3817 20.1776 55.3243 19.6889L53.3379 19.9225ZM56.2456 22.5278C56.2458 22.5278 56.2459 22.5278 56.2461 22.5278C56.2462 22.5278 56.2464 22.5278 56.2465 22.5278C56.2467 22.5278 56.2468 22.5278 56.247 22.5278C56.2471 22.5278 56.2473 22.5278 56.2474 22.5278C56.2476 22.5278 56.2477 22.5278 56.2479 22.5278C56.248 22.5278 56.2482 22.5278 56.2483 22.5278C56.2485 22.5278 56.2486 22.5278 56.2488 22.5278C56.2489 22.5278 56.2491 22.5278 56.2492 22.5278C56.2494 22.5278 56.2495 22.5278 56.2497 22.5278C56.2498 22.5278 56.25 22.5278 56.2501 22.5278C56.2503 22.5278 56.2504 22.5278 56.2506 22.5278C56.2507 22.5278 56.2509 22.5278 56.251 22.5278C56.2512 22.5278 56.2513 22.5278 56.2515 22.5278C56.2516 22.5278 56.2518 22.5278 56.2519 22.5278C56.2521 22.5278 56.2523 22.5278 56.2524 22.5278C56.2526 22.5278 56.2527 22.5278 56.2529 22.5278C56.253 22.5278 56.2532 22.5278 56.2533 22.5278C56.2535 22.5278 56.2536 22.5278 56.2538 22.5278C56.2539 22.5278 56.2541 22.5278 56.2542 22.5278C56.2544 22.5278 56.2545 22.5278 56.2547 22.5278C56.2548 22.5278 56.255 22.5278 56.2551 22.5278C56.2553 22.5278 56.2554 22.5278 56.2556 22.5278C56.2557 22.5278 56.2559 22.5278 56.256 22.5278C56.2562 22.5278 56.2563 22.5278 56.2565 22.5278C56.2566 22.5278 56.2568 22.5278 56.2569 22.5278C56.2571 22.5278 56.2572 22.5278 56.2574 22.5278C56.2575 22.5278 56.2577 22.5278 56.2578 22.5278C56.258 22.5278 56.2581 22.5278 56.2583 22.5278C56.2584 22.5278 56.2586 22.5278 56.2587 22.5278C56.2589 22.5278 56.259 22.5278 56.2592 22.5278C56.2593 22.5278 56.2595 22.5278 56.2597 22.5278C56.2598 22.5278 56.26 22.5278 56.2601 22.5278C56.2603 22.5278 56.2604 22.5278 56.2606 22.5278C56.2607 22.5278 56.2609 22.5278 56.261 22.5278C56.2612 22.5278 56.2613 22.5278 56.2615 22.5278C56.2616 22.5278 56.2618 22.5278 56.2619 22.5278C56.2621 22.5278 56.2622 22.5278 56.2624 22.5278C56.2625 22.5278 56.2627 22.5278 56.2628 22.5278C56.263 22.5278 56.2631 22.5278 56.2633 22.5278C56.2634 22.5278 56.2636 22.5278 56.2637 22.5278C56.2639 22.5278 56.264 22.5278 56.2642 22.5278C56.2643 22.5278 56.2645 22.5278 56.2646 22.5278C56.2648 22.5278 56.2649 22.5278 56.2651 22.5278C56.2652 22.5278 56.2654 22.5278 56.2655 22.5278C56.2657 22.5278 56.2658 22.5278 56.266 22.5278C56.2661 22.5278 56.2663 22.5278 56.2664 22.5278C56.2666 22.5278 56.2667 22.5278 56.2669 22.5278C56.267 22.5278 56.2672 22.5278 56.2673 22.5278C56.2675 22.5278 56.2676 22.5278 56.2678 22.5278C56.2679 22.5278 56.2681 22.5278 56.2682 22.5278C56.2684 22.5278 56.2686 22.5278 56.2687 22.5278C56.2689 22.5278 56.269 22.5278 56.2692 22.5278C56.2693 22.5278 56.2695 22.5278 56.2696 22.5278C56.2698 22.5278 56.2699 22.5278 56.2701 22.5278C56.2702 22.5278 56.2704 22.5278 56.2705 22.5278C56.2707 22.5278 56.2708 22.5278 56.271 22.5278C56.2711 22.5278 56.2713 22.5278 56.2714 22.5278C56.2716 22.5278 56.2717 22.5278 56.2719 22.5278C56.272 22.5278 56.2722 22.5278 56.2723 22.5278C56.2725 22.5278 56.2726 22.5278 56.2728 22.5278C56.2729 22.5278 56.2731 22.5278 56.2732 22.5278C56.2734 22.5278 56.2735 22.5278 56.2737 22.5278C56.2738 22.5278 56.274 22.5278 56.2741 22.5278C56.2743 22.5278 56.2744 22.5278 56.2746 22.5278C56.2747 22.5278 56.2749 22.5278 56.275 22.5278C56.2752 22.5278 56.2753 22.5278 56.2755 22.5278C56.2756 22.5278 56.2758 22.5278 56.2759 22.5278C56.2761 22.5278 56.2762 22.5278 56.2764 22.5278C56.2765 22.5278 56.2767 22.5278 56.2768 22.5278C56.277 22.5278 56.2771 22.5278 56.2773 22.5278C56.2774 22.5278 56.2776 22.5278 56.2777 22.5278C56.2779 22.5278 56.278 22.5278 56.2782 22.5278C56.2783 22.5278 56.2785 22.5278 56.2786 22.5278C56.2788 22.5278 56.2789 22.5278 56.2791 22.5278C56.2792 22.5278 56.2794 22.5278 56.2795 22.5278C56.2797 22.5278 56.2798 22.5278 56.28 22.5278C56.2801 22.5278 56.2803 22.5278 56.2804 22.5278C56.2806 22.5278 56.2807 22.5278 56.2809 22.5278C56.281 22.5278 56.2812 22.5278 56.2813 22.5278C56.2815 22.5278 56.2816 22.5278 56.2818 22.5278C56.2819 22.5278 56.2821 22.5278 56.2822 22.5278C56.2824 22.5278 56.2825 22.5278 56.2827 22.5278C56.2828 22.5278 56.283 22.5278 56.2831 22.5278C56.2833 22.5278 56.2834 22.5278 56.2836 22.5278C56.2837 22.5278 56.2839 22.5278 56.284 22.5278C56.2842 22.5278 56.2843 22.5278 56.2845 22.5278C56.2846 22.5278 56.2848 22.5278 56.2849 22.5278C56.2851 22.5278 56.2852 22.5278 56.2854 22.5278C56.2855 22.5278 56.2857 22.5278 56.2858 22.5278C56.286 22.5278 56.2861 22.5278 56.2863 22.5278C56.2864 22.5278 56.2866 22.5278 56.2867 22.5278C56.2869 22.5278 56.287 22.5278 56.2872 22.5278C56.2873 22.5278 56.2875 22.5278 56.2876 22.5278C56.2878 22.5278 56.2879 22.5278 56.2881 22.5278C56.2882 22.5278 56.2884 22.5278 56.2885 22.5278C56.2887 22.5278 56.2888 22.5278 56.289 22.5278C56.2891 22.5278 56.2893 22.5278 56.2894 22.5278C56.2896 22.5278 56.2897 22.5278 56.2899 22.5278C56.29 22.5278 56.2902 22.5278 56.2903 22.5278C56.2905 22.5278 56.2906 22.5278 56.2908 22.5278C56.2909 22.5278 56.2911 22.5278 56.2912 22.5278C56.2914 22.5278 56.2915 22.5278 56.2917 22.5278C56.2918 22.5278 56.292 22.5278 56.2921 22.5278C56.2923 22.5278 56.2924 22.5278 56.2926 22.5278C56.2927 22.5278 56.2929 22.5278 56.293 22.5278C56.2932 22.5278 56.2933 22.5278 56.2935 22.5278C56.2936 22.5278 56.2938 22.5278 56.2939 22.5278C56.2941 22.5278 56.2942 22.5278 56.2944 22.5278C56.2945 22.5278 56.2947 22.5278 56.2948 22.5278C56.295 22.5278 56.2951 22.5278 56.2953 22.5278C56.2954 22.5278 56.2956 22.5278 56.2957 22.5278C56.2959 22.5278 56.296 22.5278 56.2962 22.5278C56.2963 22.5278 56.2965 22.5278 56.2966 22.5278C56.2968 22.5278 56.2969 22.5278 56.2971 22.5278C56.2972 22.5278 56.2974 22.5278 56.2975 22.5278C56.2977 22.5278 56.2978 22.5278 56.298 22.5278C56.2981 22.5278 56.2983 22.5278 56.2984 22.5278C56.2985 22.5278 56.2987 22.5278 56.2989 22.5278C56.299 22.5278 56.2991 22.5278 56.2993 22.5278C56.2994 22.5278 56.2996 22.5278 56.2997 22.5278C56.2999 22.5278 56.3 22.5278 56.3002 22.5278C56.3003 22.5278 56.3005 22.5278 56.3006 22.5278C56.3008 22.5278 56.3009 22.5278 56.3011 22.5278C56.3012 22.5278 56.3014 22.5278 56.3015 22.5278C56.3017 22.5278 56.3018 22.5278 56.302 22.5278C56.3021 22.5278 56.3023 22.5278 56.3024 22.5278C56.3026 22.5278 56.3027 22.5278 56.3029 22.5278C56.303 22.5278 56.3032 22.5278 56.3033 22.5278C56.3035 22.5278 56.3036 22.5278 56.3038 22.5278C56.3039 22.5278 56.3041 22.5278 56.3042 22.5278C56.3044 22.5278 56.3045 22.5278 56.3047 22.5278C56.3048 22.5278 56.305 22.5278 56.3051 22.5278C56.3052 22.5278 56.3054 22.5278 56.3055 22.5278C56.3057 22.5278 56.3058 22.5278 56.306 22.5278C56.3061 22.5278 56.3063 22.5278 56.3064 22.5278C56.3066 22.5278 56.3067 22.5278 56.3069 22.5278C56.307 22.5278 56.3072 22.5278 56.3073 22.5278C56.3075 22.5278 56.3076 22.5278 56.3078 22.5278C56.3079 22.5278 56.3081 22.5278 56.3082 22.5278C56.3084 22.5278 56.3085 22.5278 56.3087 22.5278C56.3088 22.5278 56.309 22.5278 56.3091 22.5278C56.3093 22.5278 56.3094 22.5278 56.3096 22.5278C56.3097 22.5278 56.3098 22.5278 56.31 22.5278C56.3101 22.5278 56.3103 22.5278 56.3104 22.5278C56.3106 22.5278 56.3107 22.5278 56.3109 22.5278C56.311 22.5278 56.3112 22.5278 56.3113 22.5278C56.3115 22.5278 56.3116 22.5278 56.3118 22.5278C56.3119 22.5278 56.3121 22.5278 56.3122 22.5278C56.3124 22.5278 56.3125 22.5278 56.3127 22.5278C56.3128 22.5278 56.313 22.5278 56.3131 22.5278C56.3133 22.5278 56.3134 22.5278 56.3135 22.5278C56.3137 22.5278 56.3138 22.5278 56.314 22.5278C56.3141 22.5278 56.3143 22.5278 56.3144 22.5278C56.3146 22.5278 56.3147 22.5278 56.3149 22.5278C56.315 22.5278 56.3152 22.5278 56.3153 22.5278C56.3155 22.5278 56.3156 22.5278 56.3158 22.5278C56.3159 22.5278 56.3161 22.5278 56.3162 22.5278C56.3164 22.5278 56.3165 22.5278 56.3166 22.5278C56.3168 22.5278 56.3169 22.5278 56.3171 22.5278C56.3172 22.5278 56.3174 22.5278 56.3175 22.5278C56.3177 22.5278 56.3178 22.5278 56.318 22.5278C56.3181 22.5278 56.3183 22.5278 56.3184 22.5278C56.3186 22.5278 56.3187 22.5278 56.3189 22.5278C56.319 22.5278 56.3192 22.5278 56.3193 22.5278C56.3194 22.5278 56.3196 22.5278 56.3197 22.5278C56.3199 22.5278 56.32 22.5278 56.3202 22.5278C56.3203 22.5278 56.3205 22.5278 56.3206 22.5278C56.3208 22.5278 56.3209 22.5278 56.3211 22.5278C56.3212 22.5278 56.3214 22.5278 56.3215 22.5278C56.3217 22.5278 56.3218 22.5278 56.3219 22.5278C56.3221 22.5278 56.3222 22.5278 56.3224 22.5278C56.3225 22.5278 56.3227 22.5278 56.3228 22.5278C56.323 22.5278 56.3231 22.5278 56.3233 22.5278C56.3234 22.5278 56.3236 22.5278 56.3237 22.5278C56.3239 22.5278 56.324 22.5278 56.3241 22.5278C56.3243 22.5278 56.3244 22.5278 56.3246 22.5278C56.3247 22.5278 56.3249 22.5278 56.325 22.5278C56.3252 22.5278 56.3253 22.5278 56.3255 22.5278C56.3256 22.5278 56.3258 22.5278 56.3259 22.5278C56.3261 22.5278 56.3262 22.5278 56.3263 22.5278C56.3265 22.5278 56.3266 22.5278 56.3268 22.5278C56.3269 22.5278 56.3271 22.5278 56.3272 22.5278C56.3274 22.5278 56.3275 22.5278 56.3277 22.5278C56.3278 22.5278 56.328 22.5278 56.3281 22.5278C56.3282 22.5278 56.3284 22.5278 56.3285 22.5278C56.3287 22.5278 56.3288 22.5278 56.329 22.5278C56.3291 22.5278 56.3293 22.5278 56.3294 22.5278C56.3296 22.5278 56.3297 22.5278 56.3299 22.5278C56.33 22.5278 56.3301 22.5278 56.3303 22.5278C56.3304 22.5278 56.3306 22.5278 56.3307 22.5278C56.3309 22.5278 56.331 22.5278 56.3312 22.5278C56.3313 22.5278 56.3315 22.5278 56.3316 22.5278C56.3317 22.5278 56.3319 22.5278 56.332 22.5278C56.3322 22.5278 56.3323 22.5278 56.3325 22.5278C56.3326 22.5278 56.3328 22.5278 56.3329 22.5278C56.3331 22.5278 56.3332 22.5278 56.3334 22.5278C56.3335 22.5278 56.3336 22.5278 56.3338 22.5278C56.3339 22.5278 56.3341 22.5278 56.3342 22.5278C56.3344 22.5278 56.3345 22.5278 56.3347 22.5278C56.3348 22.5278 56.335 22.5278 56.3351 22.5278C56.3352 22.5278 56.3354 22.5278 56.3355 22.5278C56.3357 22.5278 56.3358 22.5278 56.336 22.5278C56.3361 22.5278 56.3363 22.5278 56.3364 22.5278C56.3366 22.5278 56.3367 22.5278 56.3368 22.5278C56.337 22.5278 56.3371 22.5278 56.3373 22.5278C56.3374 22.5278 56.3376 22.5278 56.3377 22.5278C56.3379 22.5278 56.338 22.5278 56.3381 22.5278C56.3383 22.5278 56.3384 22.5278 56.3386 22.5278C56.3387 22.5278 56.3389 22.5278 56.339 22.5278C56.3392 22.5278 56.3393 22.5278 56.3394 22.5278C56.3396 22.5278 56.3397 22.5278 56.3399 22.5278C56.34 22.5278 56.3402 22.5278 56.3403 22.5278C56.3405 22.5278 56.3406 22.5278 56.3408 22.5278C56.3409 22.5278 56.341 22.5278 56.3412 22.5278C56.3413 22.5278 56.3415 22.5278 56.3416 22.5278C56.3418 22.5278 56.3419 22.5278 56.342 22.5278C56.3422 22.5278 56.3423 22.5278 56.3425 22.5278C56.3426 22.5278 56.3428 22.5278 56.3429 22.5278C56.3431 22.5278 56.3432 22.5278 56.3433 22.5278C56.3435 22.5278 56.3436 22.5278 56.3438 22.5278C56.3439 22.5278 56.3441 22.5278 56.3442 22.5278C56.3444 22.5278 56.3445 22.5278 56.3446 22.5278C56.3448 22.5278 56.3449 22.5278 56.3451 22.5278C56.3452 22.5278 56.3454 22.5278 56.3455 22.5278C56.3457 22.5278 56.3458 22.5278 56.3459 22.5278C56.3461 22.5278 56.3462 22.5278 56.3464 22.5278C56.3465 22.5278 56.3467 22.5278 56.3468 22.5278C56.3469 22.5278 56.3471 22.5278 56.3472 22.5278C56.3474 22.5278 56.3475 22.5278 56.3477 22.5278C56.3478 22.5278 56.3479 22.5278 56.3481 22.5278C56.3482 22.5278 56.3484 22.5278 56.3485 22.5278C56.3487 22.5278 56.3488 22.5278 56.349 22.5278C56.3491 22.5278 56.3492 22.5278 56.3494 22.5278C56.3495 22.5278 56.3497 22.5278 56.3498 22.5278C56.35 22.5278 56.3501 22.5278 56.3502 22.5278C56.3504 22.5278 56.3505 22.5278 56.3507 22.5278C56.3508 22.5278 56.351 22.5278 56.3511 22.5278C56.3512 22.5278 56.3514 22.5278 56.3515 22.5278C56.3517 22.5278 56.3518 22.5278 56.352 22.5278C56.3521 22.5278 56.3522 22.5278 56.3524 22.5278C56.3525 22.5278 56.3527 22.5278 56.3528 22.5278C56.353 22.5278 56.3531 22.5278 56.3532 22.5278C56.3534 22.5278 56.3535 22.5278 56.3537 22.5278C56.3538 22.5278 56.354 22.5278 56.3541 22.5278C56.3542 22.5278 56.3544 22.5278 56.3545 22.5278C56.3547 22.5278 56.3548 22.5278 56.355 22.5278C56.3551 22.5278 56.3552 22.5278 56.3554 22.5278C56.3555 22.5278 56.3557 22.5278 56.3558 22.5278C56.3559 22.5278 56.3561 22.5278 56.3562 22.5278C56.3564 22.5278 56.3565 22.5278 56.3567 22.5278C56.3568 22.5278 56.3569 22.5278 56.3571 22.5278C56.3572 22.5278 56.3574 22.5278 56.3575 22.5278C56.3577 22.5278 56.3578 22.5278 56.3579 22.5278C56.3581 22.5278 56.3582 22.5278 56.3584 22.5278C56.3585 22.5278 56.3586 22.5278 56.3588 22.5278C56.3589 22.5278 56.3591 22.5278 56.3592 22.5278C56.3594 22.5278 56.3595 22.5278 56.3596 22.5278C56.3598 22.5278 56.3599 22.5278 56.3601 22.5278C56.3602 22.5278 56.3603 22.5278 56.3605 22.5278C56.3606 22.5278 56.3608 22.5278 56.3609 22.5278C56.3611 22.5278 56.3612 22.5278 56.3613 22.5278C56.3615 22.5278 56.3616 22.5278 56.3618 22.5278C56.3619 22.5278 56.362 22.5278 56.3622 22.5278C56.3623 22.5278 56.3625 22.5278 56.3626 22.5278C56.3627 22.5278 56.3629 22.5278 56.363 22.5278C56.3632 22.5278 56.3633 22.5278 56.3635 22.5278C56.3636 22.5278 56.3637 22.5278 56.3639 22.5278C56.364 22.5278 56.3642 22.5278 56.3643 22.5278C56.3644 22.5278 56.3646 22.5278 56.3647 22.5278C56.3649 22.5278 56.365 22.5278 56.3651 22.5278C56.3653 22.5278 56.3654 22.5278 56.3656 22.5278C56.3657 22.5278 56.3658 22.5278 56.366 22.5278C56.3661 22.5278 56.3663 22.5278 56.3664 22.5278C56.3665 22.5278 56.3667 22.5278 56.3668 22.5278C56.367 22.5278 56.3671 22.5278 56.3672 22.5278C56.3674 22.5278 56.3675 22.5278 56.3677 22.5278C56.3678 22.5278 56.3679 22.5278 56.3681 22.5278C56.3682 22.5278 56.3684 22.5278 56.3685 22.5278C56.3686 22.5278 56.3688 22.5278 56.3689 22.5278C56.3691 22.5278 56.3692 22.5278 56.3693 22.5278C56.3695 22.5278 56.3696 22.5278 56.3698 22.5278C56.3699 22.5278 56.37 22.5278 56.3702 22.5278C56.3703 22.5278 56.3705 22.5278 56.3706 22.5278C56.3707 22.5278 56.3709 22.5278 56.371 22.5278C56.3712 22.5278 56.3713 22.5278 56.3714 22.5278C56.3716 22.5278 56.3717 22.5278 56.3719 22.5278C56.372 22.5278 56.3721 22.5278 56.3723 22.5278C56.3724 22.5278 56.3726 22.5278 56.3727 22.5278C56.3728 22.5278 56.373 22.5278 56.3731 22.5278C56.3732 22.5278 56.3734 22.5278 56.3735 22.5278C56.3737 22.5278 56.3738 22.5278 56.3739 22.5278C56.3741 22.5278 56.3742 22.5278 56.3744 22.5278C56.3745 22.5278 56.3746 22.5278 56.3748 22.5278C56.3749 22.5278 56.3751 22.5278 56.3752 22.5278C56.3753 22.5278 56.3755 22.5278 56.3756 22.5278C56.3757 22.5278 56.3759 22.5278 56.376 22.5278C56.3762 22.5278 56.3763 22.5278 56.3764 22.5278C56.3766 22.5278 56.3767 22.5278 56.3769 22.5278C56.377 22.5278 56.3771 22.5278 56.3773 22.5278C56.3774 22.5278 56.3775 22.5278 56.3777 22.5278C56.3778 22.5278 56.378 22.5278 56.3781 22.5278C56.3782 22.5278 56.3784 22.5278 56.3785 22.5278C56.3787 22.5278 56.3788 22.5278 56.3789 22.5278C56.3791 22.5278 56.3792 22.5278 56.3793 22.5278C56.3795 22.5278 56.3796 22.5278 56.3797 22.5278C56.3799 22.5278 56.38 22.5278 56.3802 22.5278C56.3803 22.5278 56.3804 22.5278 56.3806 22.5278C56.3807 22.5278 56.3809 22.5278 56.381 22.5278C56.3811 22.5278 56.3813 22.5278 56.3814 22.5278C56.3815 22.5278 56.3817 22.5278 56.3818 22.5278C56.382 22.5278 56.3821 22.5278 56.3822 22.5278C56.3824 22.5278 56.3825 22.5278 56.3826 22.5278C56.3828 22.5278 56.3829 22.5278 56.383 22.5278C56.3832 22.5278 56.3833 22.5278 56.3835 22.5278C56.3836 22.5278 56.3837 22.5278 56.3839 22.5278C56.384 22.5278 56.3841 22.5278 56.3843 22.5278C56.3844 22.5278 56.3846 22.5278 56.3847 22.5278C56.3848 22.5278 56.385 22.5278 56.3851 22.5278C56.3852 22.5278 56.3854 22.5278 56.3855 22.5278C56.3856 22.5278 56.3858 22.5278 56.3859 22.5278C56.3861 22.5278 56.3862 22.5278 56.3863 22.5278C56.3865 22.5278 56.3866 22.5278 56.3867 22.5278C56.3869 22.5278 56.387 22.5278 56.3871 22.5278C56.3873 22.5278 56.3874 22.5278 56.3876 22.5278C56.3877 22.5278 56.3878 22.5278 56.388 22.5278C56.3881 22.5278 56.3882 22.5278 56.3884 22.5278C56.3885 22.5278 56.3886 22.5278 56.3888 22.5278C56.3889 22.5278 56.389 22.5278 56.3892 22.5278C56.3893 22.5278 56.3895 22.5278 56.3896 22.5278C56.3897 22.5278 56.3899 22.5278 56.39 22.5278C56.3901 22.5278 56.3903 22.5278 56.3904 22.5278C56.3905 22.5278 56.3907 22.5278 56.3908 22.5278C56.3909 22.5278 56.3911 22.5278 56.3912 22.5278C56.3913 22.5278 56.3915 22.5278 56.3916 22.5278C56.3918 22.5278 56.3919 22.5278 56.392 22.5278C56.3922 22.5278 56.3923 22.5278 56.3924 22.5278C56.3926 22.5278 56.3927 22.5278 56.3928 22.5278C56.393 22.5278 56.3931 22.5278 56.3932 22.5278C56.3934 22.5278 56.3935 22.5278 56.3936 22.5278C56.3938 22.5278 56.3939 22.5278 56.394 22.5278C56.3942 22.5278 56.3943 22.5278 56.3944 22.5278C56.3946 22.5278 56.3947 22.5278 56.3948 22.5278C56.395 22.5278 56.3951 22.5278 56.3952 22.5278C56.3954 22.5278 56.3955 22.5278 56.3956 22.5278C56.3958 22.5278 56.3959 22.5278 56.3961 22.5278C56.3962 22.5278 56.3963 22.5278 56.3965 22.5278C56.3966 22.5278 56.3967 22.5278 56.3969 22.5278C56.397 22.5278 56.3971 22.5278 56.3973 22.5278C56.3974 22.5278 56.3975 22.5278 56.3977 22.5278C56.3978 22.5278 56.3979 22.5278 56.3981 22.5278C56.3982 22.5278 56.3983 22.5278 56.3985 22.5278C56.3986 22.5278 56.3987 22.5278 56.3989 22.5278C56.399 22.5278 56.3991 22.5278 56.3993 22.5278C56.3994 22.5278 56.3995 22.5278 56.3997 22.5278C56.3998 22.5278 56.3999 22.5278 56.4001 22.5278C56.4002 22.5278 56.4003 22.5278 56.4005 22.5278C56.4006 22.5278 56.4007 22.5278 56.4009 22.5278C56.401 22.5278 56.4011 22.5278 56.4012 22.5278C56.4014 22.5278 56.4015 22.5278 56.4016 22.5278C56.4018 22.5278 56.4019 22.5278 56.402 22.5278C56.4022 22.5278 56.4023 22.5278 56.4024 22.5278C56.4026 22.5278 56.4027 22.5278 56.4028 22.5278C56.403 22.5278 56.4031 22.5278 56.4032 22.5278C56.4034 22.5278 56.4035 22.5278 56.4036 22.5278C56.4038 22.5278 56.4039 22.5278 56.404 22.5278C56.4042 22.5278 56.4043 22.5278 56.4044 22.5278C56.4046 22.5278 56.4047 22.5278 56.4048 22.5278C56.4049 22.5278 56.4051 22.5278 56.4052 22.5278C56.4053 22.5278 56.4055 22.5278 56.4056 22.5278C56.4057 22.5278 56.4059 22.5278 56.406 22.5278C56.4061 22.5278 56.4063 22.5278 56.4064 22.5278C56.4065 22.5278 56.4067 22.5278 56.4068 22.5278C56.4069 22.5278 56.4071 22.5278 56.4072 22.5278C56.4073 22.5278 56.4074 22.5278 56.4076 22.5278C56.4077 22.5278 56.4078 22.5278 56.408 22.5278C56.4081 22.5278 56.4082 22.5278 56.4084 22.5278C56.4085 22.5278 56.4086 22.5278 56.4088 22.5278C56.4089 22.5278 56.409 22.5278 56.4091 22.5278C56.4093 22.5278 56.4094 22.5278 56.4095 22.5278C56.4097 22.5278 56.4098 22.5278 56.4099 22.5278C56.4101 22.5278 56.4102 22.5278 56.4103 22.5278C56.4104 22.5278 56.4106 22.5278 56.4107 22.5278C56.4108 22.5278 56.411 22.5278 56.4111 22.5278C56.4112 22.5278 56.4114 22.5278 56.4115 22.5278C56.4116 22.5278 56.4117 22.5278 56.4119 22.5278C56.412 22.5278 56.4121 22.5278 56.4123 22.5278C56.4124 22.5278 56.4125 22.5278 56.4127 22.5278C56.4128 22.5278 56.4129 22.5278 56.413 22.5278C56.4132 22.5278 56.4133 22.5278 56.4134 22.5278C56.4136 22.5278 56.4137 22.5278 56.4138 22.5278C56.4139 22.5278 56.4141 22.5278 56.4142 22.5278C56.4143 22.5278 56.4145 22.5278 56.4146 22.5278C56.4147 22.5278 56.4148 22.5278 56.415 22.5278C56.4151 22.5278 56.4152 22.5278 56.4154 22.5278C56.4155 22.5278 56.4156 22.5278 56.4157 22.5278C56.4159 22.5278 56.416 22.5278 56.4161 22.5278C56.4163 22.5278 56.4164 22.5278 56.4165 22.5278C56.4166 22.5278 56.4168 22.5278 56.4169 22.5278C56.417 22.5278 56.4172 22.5278 56.4173 22.5278C56.4174 22.5278 56.4175 22.5278 56.4177 22.5278C56.4178 22.5278 56.4179 22.5278 56.4181 22.5278C56.4182 22.5278 56.4183 22.5278 56.4184 22.5278C56.4186 22.5278 56.4187 22.5278 56.4188 22.5278C56.419 22.5278 56.4191 22.5278 56.4192 22.5278C56.4193 22.5278 56.4195 22.5278 56.4196 22.5278C56.4197 22.5278 56.4198 22.5278 56.42 22.5278C56.4201 22.5278 56.4202 22.5278 56.4204 22.5278C56.4205 22.5278 56.4206 22.5278 56.4207 22.5278C56.4209 22.5278 56.421 22.5278 56.4211 22.5278C56.4212 22.5278 56.4214 22.5278 56.4215 22.5278C56.4216 22.5278 56.4218 22.5278 56.4219 22.5278C56.422 22.5278 56.4221 22.5278 56.4223 22.5278C56.4224 22.5278 56.4225 22.5278 56.4226 22.5278C56.4228 22.5278 56.4229 22.5278 56.423 22.5278C56.4231 22.5278 56.4233 22.5278 56.4234 22.5278C56.4235 22.5278 56.4236 22.5278 56.4238 22.5278C56.4239 22.5278 56.424 22.5278 56.4242 22.5278C56.4243 22.5278 56.4244 22.5278 56.4245 22.5278C56.4247 22.5278 56.4248 22.5278 56.4249 22.5278C56.425 22.5278 56.4252 22.5278 56.4253 22.5278C56.4254 22.5278 56.4255 22.5278 56.4257 22.5278C56.4258 22.5278 56.4259 22.5278 56.426 22.5278C56.4262 22.5278 56.4263 22.5278 56.4264 22.5278C56.4265 22.5278 56.4267 22.5278 56.4268 22.5278C56.4269 22.5278 56.427 22.5278 56.4272 22.5278C56.4273 22.5278 56.4274 22.5278 56.4275 22.5278C56.4277 22.5278 56.4278 22.5278 56.4279 22.5278C56.428 22.5278 56.4282 22.5278 56.4283 22.5278C56.4284 22.5278 56.4285 22.5278 56.4287 22.5278C56.4288 22.5278 56.4289 22.5278 56.429 22.5278C56.4292 22.5278 56.4293 22.5278 56.4294 22.5278C56.4295 22.5278 56.4297 22.5278 56.4298 22.5278C56.4299 22.5278 56.43 22.5278 56.4302 22.5278C56.4303 22.5278 56.4304 22.5278 56.4305 22.5278C56.4307 22.5278 56.4308 22.5278 56.4309 22.5278C56.431 22.5278 56.4311 22.5278 56.4313 22.5278C56.4314 22.5278 56.4315 22.5278 56.4316 22.5278C56.4318 22.5278 56.4319 22.5278 56.432 22.5278C56.4321 22.5278 56.4323 22.5278 56.4324 22.5278C56.4325 22.5278 56.4326 22.5278 56.4328 22.5278C56.4329 22.5278 56.433 22.5278 56.4331 22.5278C56.4332 22.5278 56.4334 22.5278 56.4335 22.5278C56.4336 22.5278 56.4337 22.5278 56.4339 22.5278C56.434 22.5278 56.4341 22.5278 56.4342 22.5278C56.4343 22.5278 56.4345 22.5278 56.4346 22.5278C56.4347 22.5278 56.4348 22.5278 56.435 22.5278C56.4351 22.5278 56.4352 22.5278 56.4353 22.5278C56.4355 22.5278 56.4356 22.5278 56.4357 22.5278C56.4358 22.5278 56.4359 22.5278 56.4361 22.5278C56.4362 22.5278 56.4363 22.5278 56.4364 22.5278C56.4366 22.5278 56.4367 22.5278 56.4368 22.5278C56.4369 22.5278 56.437 22.5278 56.4372 22.5278C56.4373 22.5278 56.4374 22.5278 56.4375 22.5278C56.4376 22.5278 56.4378 22.5278 56.4379 22.5278C56.438 22.5278 56.4381 22.5278 56.4383 22.5278C56.4384 22.5278 56.4385 22.5278 56.4386 22.5278C56.4387 22.5278 56.4389 22.5278 56.439 22.5278C56.4391 22.5278 56.4392 22.5278 56.4393 22.5278C56.4395 22.5278 56.4396 22.5278 56.4397 22.5278C56.4398 22.5278 56.4399 22.5278 56.4401 22.5278C56.4402 22.5278 56.4403 22.5278 56.4404 22.5278C56.4405 22.5278 56.4407 22.5278 56.4408 22.5278C56.4409 22.5278 56.441 22.5278 56.4412 22.5278C56.4413 22.5278 56.4414 22.5278 56.4415 22.5278C56.4416 22.5278 56.4417 22.5278 56.4419 22.5278C56.442 22.5278 56.4421 22.5278 56.4422 22.5278C56.4423 22.5278 56.4425 22.5278 56.4426 22.5278C56.4427 22.5278 56.4428 22.5278 56.4429 22.5278C56.4431 22.5278 56.4432 22.5278 56.4433 22.5278C56.4434 22.5278 56.4435 22.5278 56.4437 22.5278C56.4438 22.5278 56.4439 22.5278 56.444 22.5278C56.4441 22.5278 56.4443 22.5278 56.4444 22.5278C56.4445 22.5278 56.4446 22.5278 56.4447 22.5278C56.4449 22.5278 56.445 22.5278 56.4451 22.5278C56.4452 22.5278 56.4453 22.5278 56.4454 22.5278C56.4456 22.5278 56.4457 22.5278 56.4458 22.5278C56.4459 22.5278 56.446 22.5278 56.4462 22.5278C56.4463 22.5278 56.4464 22.5278 56.4465 22.5278C56.4466 22.5278 56.4467 22.5278 56.4469 22.5278C56.447 22.5278 56.4471 22.5278 56.4472 22.5278C56.4473 22.5278 56.4475 22.5278 56.4476 22.5278C56.4477 22.5278 56.4478 22.5278 56.4479 22.5278C56.448 22.5278 56.4482 22.5278 56.4483 22.5278C56.4484 22.5278 56.4485 22.5278 56.4486 22.5278C56.4487 22.5278 56.4489 22.5278 56.449 22.5278C56.4491 22.5278 56.4492 22.5278 56.4493 22.5278C56.4495 22.5278 56.4496 22.5278 56.4497 22.5278C56.4498 22.5278 56.4499 22.5278 56.45 22.5278C56.4502 22.5278 56.4503 22.5278 56.4504 22.5278C56.4505 22.5278 56.4506 22.5278 56.4507 22.5278C56.4509 22.5278 56.451 22.5278 56.4511 22.5278C56.4512 22.5278 56.4513 22.5278 56.4514 22.5278C56.4515 22.5278 56.4517 22.5278 56.4518 22.5278C56.4519 22.5278 56.452 22.5278 56.4521 22.5278C56.4522 22.5278 56.4524 22.5278 56.4525 22.5278C56.4526 22.5278 56.4527 22.5278 56.4528 22.5278C56.4529 22.5278 56.4531 22.5278 56.4532 22.5278C56.4533 22.5278 56.4534 22.5278 56.4535 22.5278C56.4536 22.5278 56.4537 22.5278 56.4539 22.5278C56.454 22.5278 56.4541 22.5278 56.4542 22.5278C56.4543 22.5278 56.4544 22.5278 56.4546 22.5278C56.4547 22.5278 56.4548 22.5278 56.4549 22.5278C56.455 22.5278 56.4551 22.5278 56.4552 22.5278C56.4554 22.5278 56.4555 22.5278 56.4556 22.5278C56.4557 22.5278 56.4558 22.5278 56.4559 22.5278C56.456 22.5278 56.4562 22.5278 56.4563 22.5278C56.4564 22.5278 56.4565 22.5278 56.4566 22.5278C56.4567 22.5278 56.4568 22.5278 56.457 22.5278C56.4571 22.5278 56.4572 22.5278 56.4573 22.5278C56.4574 22.5278 56.4575 22.5278 56.4576 22.5278C56.4578 22.5278 56.4579 22.5278 56.458 22.5278C56.4581 22.5278 56.4582 22.5278 56.4583 22.5278V20.5278C56.4582 20.5278 56.4581 20.5278 56.458 20.5278C56.4579 20.5278 56.4578 20.5278 56.4576 20.5278C56.4575 20.5278 56.4574 20.5278 56.4573 20.5278C56.4572 20.5278 56.4571 20.5278 56.457 20.5278C56.4568 20.5278 56.4567 20.5278 56.4566 20.5278C56.4565 20.5278 56.4564 20.5278 56.4563 20.5278C56.4562 20.5278 56.456 20.5278 56.4559 20.5278C56.4558 20.5278 56.4557 20.5278 56.4556 20.5278C56.4555 20.5278 56.4554 20.5278 56.4552 20.5278C56.4551 20.5278 56.455 20.5278 56.4549 20.5278C56.4548 20.5278 56.4547 20.5278 56.4546 20.5278C56.4544 20.5278 56.4543 20.5278 56.4542 20.5278C56.4541 20.5278 56.454 20.5278 56.4539 20.5278C56.4537 20.5278 56.4536 20.5278 56.4535 20.5278C56.4534 20.5278 56.4533 20.5278 56.4532 20.5278C56.4531 20.5278 56.4529 20.5278 56.4528 20.5278C56.4527 20.5278 56.4526 20.5278 56.4525 20.5278C56.4524 20.5278 56.4522 20.5278 56.4521 20.5278C56.452 20.5278 56.4519 20.5278 56.4518 20.5278C56.4517 20.5278 56.4515 20.5278 56.4514 20.5278C56.4513 20.5278 56.4512 20.5278 56.4511 20.5278C56.451 20.5278 56.4509 20.5278 56.4507 20.5278C56.4506 20.5278 56.4505 20.5278 56.4504 20.5278C56.4503 20.5278 56.4502 20.5278 56.45 20.5278C56.4499 20.5278 56.4498 20.5278 56.4497 20.5278C56.4496 20.5278 56.4495 20.5278 56.4493 20.5278C56.4492 20.5278 56.4491 20.5278 56.449 20.5278C56.4489 20.5278 56.4487 20.5278 56.4486 20.5278C56.4485 20.5278 56.4484 20.5278 56.4483 20.5278C56.4482 20.5278 56.448 20.5278 56.4479 20.5278C56.4478 20.5278 56.4477 20.5278 56.4476 20.5278C56.4475 20.5278 56.4473 20.5278 56.4472 20.5278C56.4471 20.5278 56.447 20.5278 56.4469 20.5278C56.4467 20.5278 56.4466 20.5278 56.4465 20.5278C56.4464 20.5278 56.4463 20.5278 56.4462 20.5278C56.446 20.5278 56.4459 20.5278 56.4458 20.5278C56.4457 20.5278 56.4456 20.5278 56.4454 20.5278C56.4453 20.5278 56.4452 20.5278 56.4451 20.5278C56.445 20.5278 56.4449 20.5278 56.4447 20.5278C56.4446 20.5278 56.4445 20.5278 56.4444 20.5278C56.4443 20.5278 56.4441 20.5278 56.444 20.5278C56.4439 20.5278 56.4438 20.5278 56.4437 20.5278C56.4435 20.5278 56.4434 20.5278 56.4433 20.5278C56.4432 20.5278 56.4431 20.5278 56.4429 20.5278C56.4428 20.5278 56.4427 20.5278 56.4426 20.5278C56.4425 20.5278 56.4423 20.5278 56.4422 20.5278C56.4421 20.5278 56.442 20.5278 56.4419 20.5278C56.4417 20.5278 56.4416 20.5278 56.4415 20.5278C56.4414 20.5278 56.4413 20.5278 56.4412 20.5278C56.441 20.5278 56.4409 20.5278 56.4408 20.5278C56.4407 20.5278 56.4405 20.5278 56.4404 20.5278C56.4403 20.5278 56.4402 20.5278 56.4401 20.5278C56.4399 20.5278 56.4398 20.5278 56.4397 20.5278C56.4396 20.5278 56.4395 20.5278 56.4393 20.5278C56.4392 20.5278 56.4391 20.5278 56.439 20.5278C56.4389 20.5278 56.4387 20.5278 56.4386 20.5278C56.4385 20.5278 56.4384 20.5278 56.4383 20.5278C56.4381 20.5278 56.438 20.5278 56.4379 20.5278C56.4378 20.5278 56.4376 20.5278 56.4375 20.5278C56.4374 20.5278 56.4373 20.5278 56.4372 20.5278C56.437 20.5278 56.4369 20.5278 56.4368 20.5278C56.4367 20.5278 56.4366 20.5278 56.4364 20.5278C56.4363 20.5278 56.4362 20.5278 56.4361 20.5278C56.4359 20.5278 56.4358 20.5278 56.4357 20.5278C56.4356 20.5278 56.4355 20.5278 56.4353 20.5278C56.4352 20.5278 56.4351 20.5278 56.435 20.5278C56.4348 20.5278 56.4347 20.5278 56.4346 20.5278C56.4345 20.5278 56.4343 20.5278 56.4342 20.5278C56.4341 20.5278 56.434 20.5278 56.4339 20.5278C56.4337 20.5278 56.4336 20.5278 56.4335 20.5278C56.4334 20.5278 56.4332 20.5278 56.4331 20.5278C56.433 20.5278 56.4329 20.5278 56.4328 20.5278C56.4326 20.5278 56.4325 20.5278 56.4324 20.5278C56.4323 20.5278 56.4321 20.5278 56.432 20.5278C56.4319 20.5278 56.4318 20.5278 56.4316 20.5278C56.4315 20.5278 56.4314 20.5278 56.4313 20.5278C56.4311 20.5278 56.431 20.5278 56.4309 20.5278C56.4308 20.5278 56.4307 20.5278 56.4305 20.5278C56.4304 20.5278 56.4303 20.5278 56.4302 20.5278C56.43 20.5278 56.4299 20.5278 56.4298 20.5278C56.4297 20.5278 56.4295 20.5278 56.4294 20.5278C56.4293 20.5278 56.4292 20.5278 56.429 20.5278C56.4289 20.5278 56.4288 20.5278 56.4287 20.5278C56.4285 20.5278 56.4284 20.5278 56.4283 20.5278C56.4282 20.5278 56.428 20.5278 56.4279 20.5278C56.4278 20.5278 56.4277 20.5278 56.4275 20.5278C56.4274 20.5278 56.4273 20.5278 56.4272 20.5278C56.427 20.5278 56.4269 20.5278 56.4268 20.5278C56.4267 20.5278 56.4265 20.5278 56.4264 20.5278C56.4263 20.5278 56.4262 20.5278 56.426 20.5278C56.4259 20.5278 56.4258 20.5278 56.4257 20.5278C56.4255 20.5278 56.4254 20.5278 56.4253 20.5278C56.4252 20.5278 56.425 20.5278 56.4249 20.5278C56.4248 20.5278 56.4247 20.5278 56.4245 20.5278C56.4244 20.5278 56.4243 20.5278 56.4242 20.5278C56.424 20.5278 56.4239 20.5278 56.4238 20.5278C56.4236 20.5278 56.4235 20.5278 56.4234 20.5278C56.4233 20.5278 56.4231 20.5278 56.423 20.5278C56.4229 20.5278 56.4228 20.5278 56.4226 20.5278C56.4225 20.5278 56.4224 20.5278 56.4223 20.5278C56.4221 20.5278 56.422 20.5278 56.4219 20.5278C56.4218 20.5278 56.4216 20.5278 56.4215 20.5278C56.4214 20.5278 56.4212 20.5278 56.4211 20.5278C56.421 20.5278 56.4209 20.5278 56.4207 20.5278C56.4206 20.5278 56.4205 20.5278 56.4204 20.5278C56.4202 20.5278 56.4201 20.5278 56.42 20.5278C56.4198 20.5278 56.4197 20.5278 56.4196 20.5278C56.4195 20.5278 56.4193 20.5278 56.4192 20.5278C56.4191 20.5278 56.419 20.5278 56.4188 20.5278C56.4187 20.5278 56.4186 20.5278 56.4184 20.5278C56.4183 20.5278 56.4182 20.5278 56.4181 20.5278C56.4179 20.5278 56.4178 20.5278 56.4177 20.5278C56.4175 20.5278 56.4174 20.5278 56.4173 20.5278C56.4172 20.5278 56.417 20.5278 56.4169 20.5278C56.4168 20.5278 56.4166 20.5278 56.4165 20.5278C56.4164 20.5278 56.4163 20.5278 56.4161 20.5278C56.416 20.5278 56.4159 20.5278 56.4157 20.5278C56.4156 20.5278 56.4155 20.5278 56.4154 20.5278C56.4152 20.5278 56.4151 20.5278 56.415 20.5278C56.4148 20.5278 56.4147 20.5278 56.4146 20.5278C56.4145 20.5278 56.4143 20.5278 56.4142 20.5278C56.4141 20.5278 56.4139 20.5278 56.4138 20.5278C56.4137 20.5278 56.4136 20.5278 56.4134 20.5278C56.4133 20.5278 56.4132 20.5278 56.413 20.5278C56.4129 20.5278 56.4128 20.5278 56.4127 20.5278C56.4125 20.5278 56.4124 20.5278 56.4123 20.5278C56.4121 20.5278 56.412 20.5278 56.4119 20.5278C56.4117 20.5278 56.4116 20.5278 56.4115 20.5278C56.4114 20.5278 56.4112 20.5278 56.4111 20.5278C56.411 20.5278 56.4108 20.5278 56.4107 20.5278C56.4106 20.5278 56.4104 20.5278 56.4103 20.5278C56.4102 20.5278 56.4101 20.5278 56.4099 20.5278C56.4098 20.5278 56.4097 20.5278 56.4095 20.5278C56.4094 20.5278 56.4093 20.5278 56.4091 20.5278C56.409 20.5278 56.4089 20.5278 56.4088 20.5278C56.4086 20.5278 56.4085 20.5278 56.4084 20.5278C56.4082 20.5278 56.4081 20.5278 56.408 20.5278C56.4078 20.5278 56.4077 20.5278 56.4076 20.5278C56.4074 20.5278 56.4073 20.5278 56.4072 20.5278C56.4071 20.5278 56.4069 20.5278 56.4068 20.5278C56.4067 20.5278 56.4065 20.5278 56.4064 20.5278C56.4063 20.5278 56.4061 20.5278 56.406 20.5278C56.4059 20.5278 56.4057 20.5278 56.4056 20.5278C56.4055 20.5278 56.4053 20.5278 56.4052 20.5278C56.4051 20.5278 56.4049 20.5278 56.4048 20.5278C56.4047 20.5278 56.4046 20.5278 56.4044 20.5278C56.4043 20.5278 56.4042 20.5278 56.404 20.5278C56.4039 20.5278 56.4038 20.5278 56.4036 20.5278C56.4035 20.5278 56.4034 20.5278 56.4032 20.5278C56.4031 20.5278 56.403 20.5278 56.4028 20.5278C56.4027 20.5278 56.4026 20.5278 56.4024 20.5278C56.4023 20.5278 56.4022 20.5278 56.402 20.5278C56.4019 20.5278 56.4018 20.5278 56.4016 20.5278C56.4015 20.5278 56.4014 20.5278 56.4012 20.5278C56.4011 20.5278 56.401 20.5278 56.4009 20.5278C56.4007 20.5278 56.4006 20.5278 56.4005 20.5278C56.4003 20.5278 56.4002 20.5278 56.4001 20.5278C56.3999 20.5278 56.3998 20.5278 56.3997 20.5278C56.3995 20.5278 56.3994 20.5278 56.3993 20.5278C56.3991 20.5278 56.399 20.5278 56.3989 20.5278C56.3987 20.5278 56.3986 20.5278 56.3985 20.5278C56.3983 20.5278 56.3982 20.5278 56.3981 20.5278C56.3979 20.5278 56.3978 20.5278 56.3977 20.5278C56.3975 20.5278 56.3974 20.5278 56.3973 20.5278C56.3971 20.5278 56.397 20.5278 56.3969 20.5278C56.3967 20.5278 56.3966 20.5278 56.3965 20.5278C56.3963 20.5278 56.3962 20.5278 56.3961 20.5278C56.3959 20.5278 56.3958 20.5278 56.3956 20.5278C56.3955 20.5278 56.3954 20.5278 56.3952 20.5278C56.3951 20.5278 56.395 20.5278 56.3948 20.5278C56.3947 20.5278 56.3946 20.5278 56.3944 20.5278C56.3943 20.5278 56.3942 20.5278 56.394 20.5278C56.3939 20.5278 56.3938 20.5278 56.3936 20.5278C56.3935 20.5278 56.3934 20.5278 56.3932 20.5278C56.3931 20.5278 56.393 20.5278 56.3928 20.5278C56.3927 20.5278 56.3926 20.5278 56.3924 20.5278C56.3923 20.5278 56.3922 20.5278 56.392 20.5278C56.3919 20.5278 56.3918 20.5278 56.3916 20.5278C56.3915 20.5278 56.3913 20.5278 56.3912 20.5278C56.3911 20.5278 56.3909 20.5278 56.3908 20.5278C56.3907 20.5278 56.3905 20.5278 56.3904 20.5278C56.3903 20.5278 56.3901 20.5278 56.39 20.5278C56.3899 20.5278 56.3897 20.5278 56.3896 20.5278C56.3895 20.5278 56.3893 20.5278 56.3892 20.5278C56.389 20.5278 56.3889 20.5278 56.3888 20.5278C56.3886 20.5278 56.3885 20.5278 56.3884 20.5278C56.3882 20.5278 56.3881 20.5278 56.388 20.5278C56.3878 20.5278 56.3877 20.5278 56.3876 20.5278C56.3874 20.5278 56.3873 20.5278 56.3871 20.5278C56.387 20.5278 56.3869 20.5278 56.3867 20.5278C56.3866 20.5278 56.3865 20.5278 56.3863 20.5278C56.3862 20.5278 56.3861 20.5278 56.3859 20.5278C56.3858 20.5278 56.3856 20.5278 56.3855 20.5278C56.3854 20.5278 56.3852 20.5278 56.3851 20.5278C56.385 20.5278 56.3848 20.5278 56.3847 20.5278C56.3846 20.5278 56.3844 20.5278 56.3843 20.5278C56.3841 20.5278 56.384 20.5278 56.3839 20.5278C56.3837 20.5278 56.3836 20.5278 56.3835 20.5278C56.3833 20.5278 56.3832 20.5278 56.383 20.5278C56.3829 20.5278 56.3828 20.5278 56.3826 20.5278C56.3825 20.5278 56.3824 20.5278 56.3822 20.5278C56.3821 20.5278 56.382 20.5278 56.3818 20.5278C56.3817 20.5278 56.3815 20.5278 56.3814 20.5278C56.3813 20.5278 56.3811 20.5278 56.381 20.5278C56.3809 20.5278 56.3807 20.5278 56.3806 20.5278C56.3804 20.5278 56.3803 20.5278 56.3802 20.5278C56.38 20.5278 56.3799 20.5278 56.3797 20.5278C56.3796 20.5278 56.3795 20.5278 56.3793 20.5278C56.3792 20.5278 56.3791 20.5278 56.3789 20.5278C56.3788 20.5278 56.3787 20.5278 56.3785 20.5278C56.3784 20.5278 56.3782 20.5278 56.3781 20.5278C56.378 20.5278 56.3778 20.5278 56.3777 20.5278C56.3775 20.5278 56.3774 20.5278 56.3773 20.5278C56.3771 20.5278 56.377 20.5278 56.3769 20.5278C56.3767 20.5278 56.3766 20.5278 56.3764 20.5278C56.3763 20.5278 56.3762 20.5278 56.376 20.5278C56.3759 20.5278 56.3757 20.5278 56.3756 20.5278C56.3755 20.5278 56.3753 20.5278 56.3752 20.5278C56.3751 20.5278 56.3749 20.5278 56.3748 20.5278C56.3746 20.5278 56.3745 20.5278 56.3744 20.5278C56.3742 20.5278 56.3741 20.5278 56.3739 20.5278C56.3738 20.5278 56.3737 20.5278 56.3735 20.5278C56.3734 20.5278 56.3732 20.5278 56.3731 20.5278C56.373 20.5278 56.3728 20.5278 56.3727 20.5278C56.3726 20.5278 56.3724 20.5278 56.3723 20.5278C56.3721 20.5278 56.372 20.5278 56.3719 20.5278C56.3717 20.5278 56.3716 20.5278 56.3714 20.5278C56.3713 20.5278 56.3712 20.5278 56.371 20.5278C56.3709 20.5278 56.3707 20.5278 56.3706 20.5278C56.3705 20.5278 56.3703 20.5278 56.3702 20.5278C56.37 20.5278 56.3699 20.5278 56.3698 20.5278C56.3696 20.5278 56.3695 20.5278 56.3693 20.5278C56.3692 20.5278 56.3691 20.5278 56.3689 20.5278C56.3688 20.5278 56.3686 20.5278 56.3685 20.5278C56.3684 20.5278 56.3682 20.5278 56.3681 20.5278C56.3679 20.5278 56.3678 20.5278 56.3677 20.5278C56.3675 20.5278 56.3674 20.5278 56.3672 20.5278C56.3671 20.5278 56.367 20.5278 56.3668 20.5278C56.3667 20.5278 56.3665 20.5278 56.3664 20.5278C56.3663 20.5278 56.3661 20.5278 56.366 20.5278C56.3658 20.5278 56.3657 20.5278 56.3656 20.5278C56.3654 20.5278 56.3653 20.5278 56.3651 20.5278C56.365 20.5278 56.3649 20.5278 56.3647 20.5278C56.3646 20.5278 56.3644 20.5278 56.3643 20.5278C56.3642 20.5278 56.364 20.5278 56.3639 20.5278C56.3637 20.5278 56.3636 20.5278 56.3635 20.5278C56.3633 20.5278 56.3632 20.5278 56.363 20.5278C56.3629 20.5278 56.3627 20.5278 56.3626 20.5278C56.3625 20.5278 56.3623 20.5278 56.3622 20.5278C56.362 20.5278 56.3619 20.5278 56.3618 20.5278C56.3616 20.5278 56.3615 20.5278 56.3613 20.5278C56.3612 20.5278 56.3611 20.5278 56.3609 20.5278C56.3608 20.5278 56.3606 20.5278 56.3605 20.5278C56.3603 20.5278 56.3602 20.5278 56.3601 20.5278C56.3599 20.5278 56.3598 20.5278 56.3596 20.5278C56.3595 20.5278 56.3594 20.5278 56.3592 20.5278C56.3591 20.5278 56.3589 20.5278 56.3588 20.5278C56.3586 20.5278 56.3585 20.5278 56.3584 20.5278C56.3582 20.5278 56.3581 20.5278 56.3579 20.5278C56.3578 20.5278 56.3577 20.5278 56.3575 20.5278C56.3574 20.5278 56.3572 20.5278 56.3571 20.5278C56.3569 20.5278 56.3568 20.5278 56.3567 20.5278C56.3565 20.5278 56.3564 20.5278 56.3562 20.5278C56.3561 20.5278 56.3559 20.5278 56.3558 20.5278C56.3557 20.5278 56.3555 20.5278 56.3554 20.5278C56.3552 20.5278 56.3551 20.5278 56.355 20.5278C56.3548 20.5278 56.3547 20.5278 56.3545 20.5278C56.3544 20.5278 56.3542 20.5278 56.3541 20.5278C56.354 20.5278 56.3538 20.5278 56.3537 20.5278C56.3535 20.5278 56.3534 20.5278 56.3532 20.5278C56.3531 20.5278 56.353 20.5278 56.3528 20.5278C56.3527 20.5278 56.3525 20.5278 56.3524 20.5278C56.3522 20.5278 56.3521 20.5278 56.352 20.5278C56.3518 20.5278 56.3517 20.5278 56.3515 20.5278C56.3514 20.5278 56.3512 20.5278 56.3511 20.5278C56.351 20.5278 56.3508 20.5278 56.3507 20.5278C56.3505 20.5278 56.3504 20.5278 56.3502 20.5278C56.3501 20.5278 56.35 20.5278 56.3498 20.5278C56.3497 20.5278 56.3495 20.5278 56.3494 20.5278C56.3492 20.5278 56.3491 20.5278 56.349 20.5278C56.3488 20.5278 56.3487 20.5278 56.3485 20.5278C56.3484 20.5278 56.3482 20.5278 56.3481 20.5278C56.3479 20.5278 56.3478 20.5278 56.3477 20.5278C56.3475 20.5278 56.3474 20.5278 56.3472 20.5278C56.3471 20.5278 56.3469 20.5278 56.3468 20.5278C56.3467 20.5278 56.3465 20.5278 56.3464 20.5278C56.3462 20.5278 56.3461 20.5278 56.3459 20.5278C56.3458 20.5278 56.3457 20.5278 56.3455 20.5278C56.3454 20.5278 56.3452 20.5278 56.3451 20.5278C56.3449 20.5278 56.3448 20.5278 56.3446 20.5278C56.3445 20.5278 56.3444 20.5278 56.3442 20.5278C56.3441 20.5278 56.3439 20.5278 56.3438 20.5278C56.3436 20.5278 56.3435 20.5278 56.3433 20.5278C56.3432 20.5278 56.3431 20.5278 56.3429 20.5278C56.3428 20.5278 56.3426 20.5278 56.3425 20.5278C56.3423 20.5278 56.3422 20.5278 56.342 20.5278C56.3419 20.5278 56.3418 20.5278 56.3416 20.5278C56.3415 20.5278 56.3413 20.5278 56.3412 20.5278C56.341 20.5278 56.3409 20.5278 56.3408 20.5278C56.3406 20.5278 56.3405 20.5278 56.3403 20.5278C56.3402 20.5278 56.34 20.5278 56.3399 20.5278C56.3397 20.5278 56.3396 20.5278 56.3394 20.5278C56.3393 20.5278 56.3392 20.5278 56.339 20.5278C56.3389 20.5278 56.3387 20.5278 56.3386 20.5278C56.3384 20.5278 56.3383 20.5278 56.3381 20.5278C56.338 20.5278 56.3379 20.5278 56.3377 20.5278C56.3376 20.5278 56.3374 20.5278 56.3373 20.5278C56.3371 20.5278 56.337 20.5278 56.3368 20.5278C56.3367 20.5278 56.3366 20.5278 56.3364 20.5278C56.3363 20.5278 56.3361 20.5278 56.336 20.5278C56.3358 20.5278 56.3357 20.5278 56.3355 20.5278C56.3354 20.5278 56.3352 20.5278 56.3351 20.5278C56.335 20.5278 56.3348 20.5278 56.3347 20.5278C56.3345 20.5278 56.3344 20.5278 56.3342 20.5278C56.3341 20.5278 56.3339 20.5278 56.3338 20.5278C56.3336 20.5278 56.3335 20.5278 56.3334 20.5278C56.3332 20.5278 56.3331 20.5278 56.3329 20.5278C56.3328 20.5278 56.3326 20.5278 56.3325 20.5278C56.3323 20.5278 56.3322 20.5278 56.332 20.5278C56.3319 20.5278 56.3317 20.5278 56.3316 20.5278C56.3315 20.5278 56.3313 20.5278 56.3312 20.5278C56.331 20.5278 56.3309 20.5278 56.3307 20.5278C56.3306 20.5278 56.3304 20.5278 56.3303 20.5278C56.3301 20.5278 56.33 20.5278 56.3299 20.5278C56.3297 20.5278 56.3296 20.5278 56.3294 20.5278C56.3293 20.5278 56.3291 20.5278 56.329 20.5278C56.3288 20.5278 56.3287 20.5278 56.3285 20.5278C56.3284 20.5278 56.3282 20.5278 56.3281 20.5278C56.328 20.5278 56.3278 20.5278 56.3277 20.5278C56.3275 20.5278 56.3274 20.5278 56.3272 20.5278C56.3271 20.5278 56.3269 20.5278 56.3268 20.5278C56.3266 20.5278 56.3265 20.5278 56.3263 20.5278C56.3262 20.5278 56.3261 20.5278 56.3259 20.5278C56.3258 20.5278 56.3256 20.5278 56.3255 20.5278C56.3253 20.5278 56.3252 20.5278 56.325 20.5278C56.3249 20.5278 56.3247 20.5278 56.3246 20.5278C56.3244 20.5278 56.3243 20.5278 56.3241 20.5278C56.324 20.5278 56.3239 20.5278 56.3237 20.5278C56.3236 20.5278 56.3234 20.5278 56.3233 20.5278C56.3231 20.5278 56.323 20.5278 56.3228 20.5278C56.3227 20.5278 56.3225 20.5278 56.3224 20.5278C56.3222 20.5278 56.3221 20.5278 56.3219 20.5278C56.3218 20.5278 56.3217 20.5278 56.3215 20.5278C56.3214 20.5278 56.3212 20.5278 56.3211 20.5278C56.3209 20.5278 56.3208 20.5278 56.3206 20.5278C56.3205 20.5278 56.3203 20.5278 56.3202 20.5278C56.32 20.5278 56.3199 20.5278 56.3197 20.5278C56.3196 20.5278 56.3194 20.5278 56.3193 20.5278C56.3192 20.5278 56.319 20.5278 56.3189 20.5278C56.3187 20.5278 56.3186 20.5278 56.3184 20.5278C56.3183 20.5278 56.3181 20.5278 56.318 20.5278C56.3178 20.5278 56.3177 20.5278 56.3175 20.5278C56.3174 20.5278 56.3172 20.5278 56.3171 20.5278C56.3169 20.5278 56.3168 20.5278 56.3166 20.5278C56.3165 20.5278 56.3164 20.5278 56.3162 20.5278C56.3161 20.5278 56.3159 20.5278 56.3158 20.5278C56.3156 20.5278 56.3155 20.5278 56.3153 20.5278C56.3152 20.5278 56.315 20.5278 56.3149 20.5278C56.3147 20.5278 56.3146 20.5278 56.3144 20.5278C56.3143 20.5278 56.3141 20.5278 56.314 20.5278C56.3138 20.5278 56.3137 20.5278 56.3135 20.5278C56.3134 20.5278 56.3133 20.5278 56.3131 20.5278C56.313 20.5278 56.3128 20.5278 56.3127 20.5278C56.3125 20.5278 56.3124 20.5278 56.3122 20.5278C56.3121 20.5278 56.3119 20.5278 56.3118 20.5278C56.3116 20.5278 56.3115 20.5278 56.3113 20.5278C56.3112 20.5278 56.311 20.5278 56.3109 20.5278C56.3107 20.5278 56.3106 20.5278 56.3104 20.5278C56.3103 20.5278 56.3101 20.5278 56.31 20.5278C56.3098 20.5278 56.3097 20.5278 56.3096 20.5278C56.3094 20.5278 56.3093 20.5278 56.3091 20.5278C56.309 20.5278 56.3088 20.5278 56.3087 20.5278C56.3085 20.5278 56.3084 20.5278 56.3082 20.5278C56.3081 20.5278 56.3079 20.5278 56.3078 20.5278C56.3076 20.5278 56.3075 20.5278 56.3073 20.5278C56.3072 20.5278 56.307 20.5278 56.3069 20.5278C56.3067 20.5278 56.3066 20.5278 56.3064 20.5278C56.3063 20.5278 56.3061 20.5278 56.306 20.5278C56.3058 20.5278 56.3057 20.5278 56.3055 20.5278C56.3054 20.5278 56.3052 20.5278 56.3051 20.5278C56.305 20.5278 56.3048 20.5278 56.3047 20.5278C56.3045 20.5278 56.3044 20.5278 56.3042 20.5278C56.3041 20.5278 56.3039 20.5278 56.3038 20.5278C56.3036 20.5278 56.3035 20.5278 56.3033 20.5278C56.3032 20.5278 56.303 20.5278 56.3029 20.5278C56.3027 20.5278 56.3026 20.5278 56.3024 20.5278C56.3023 20.5278 56.3021 20.5278 56.302 20.5278C56.3018 20.5278 56.3017 20.5278 56.3015 20.5278C56.3014 20.5278 56.3012 20.5278 56.3011 20.5278C56.3009 20.5278 56.3008 20.5278 56.3006 20.5278C56.3005 20.5278 56.3003 20.5278 56.3002 20.5278C56.3 20.5278 56.2999 20.5278 56.2997 20.5278C56.2996 20.5278 56.2994 20.5278 56.2993 20.5278C56.2991 20.5278 56.299 20.5278 56.2989 20.5278C56.2987 20.5278 56.2985 20.5278 56.2984 20.5278C56.2983 20.5278 56.2981 20.5278 56.298 20.5278C56.2978 20.5278 56.2977 20.5278 56.2975 20.5278C56.2974 20.5278 56.2972 20.5278 56.2971 20.5278C56.2969 20.5278 56.2968 20.5278 56.2966 20.5278C56.2965 20.5278 56.2963 20.5278 56.2962 20.5278C56.296 20.5278 56.2959 20.5278 56.2957 20.5278C56.2956 20.5278 56.2954 20.5278 56.2953 20.5278C56.2951 20.5278 56.295 20.5278 56.2948 20.5278C56.2947 20.5278 56.2945 20.5278 56.2944 20.5278C56.2942 20.5278 56.2941 20.5278 56.2939 20.5278C56.2938 20.5278 56.2936 20.5278 56.2935 20.5278C56.2933 20.5278 56.2932 20.5278 56.293 20.5278C56.2929 20.5278 56.2927 20.5278 56.2926 20.5278C56.2924 20.5278 56.2923 20.5278 56.2921 20.5278C56.292 20.5278 56.2918 20.5278 56.2917 20.5278C56.2915 20.5278 56.2914 20.5278 56.2912 20.5278C56.2911 20.5278 56.2909 20.5278 56.2908 20.5278C56.2906 20.5278 56.2905 20.5278 56.2903 20.5278C56.2902 20.5278 56.29 20.5278 56.2899 20.5278C56.2897 20.5278 56.2896 20.5278 56.2894 20.5278C56.2893 20.5278 56.2891 20.5278 56.289 20.5278C56.2888 20.5278 56.2887 20.5278 56.2885 20.5278C56.2884 20.5278 56.2882 20.5278 56.2881 20.5278C56.2879 20.5278 56.2878 20.5278 56.2876 20.5278C56.2875 20.5278 56.2873 20.5278 56.2872 20.5278C56.287 20.5278 56.2869 20.5278 56.2867 20.5278C56.2866 20.5278 56.2864 20.5278 56.2863 20.5278C56.2861 20.5278 56.286 20.5278 56.2858 20.5278C56.2857 20.5278 56.2855 20.5278 56.2854 20.5278C56.2852 20.5278 56.2851 20.5278 56.2849 20.5278C56.2848 20.5278 56.2846 20.5278 56.2845 20.5278C56.2843 20.5278 56.2842 20.5278 56.284 20.5278C56.2839 20.5278 56.2837 20.5278 56.2836 20.5278C56.2834 20.5278 56.2833 20.5278 56.2831 20.5278C56.283 20.5278 56.2828 20.5278 56.2827 20.5278C56.2825 20.5278 56.2824 20.5278 56.2822 20.5278C56.2821 20.5278 56.2819 20.5278 56.2818 20.5278C56.2816 20.5278 56.2815 20.5278 56.2813 20.5278C56.2812 20.5278 56.281 20.5278 56.2809 20.5278C56.2807 20.5278 56.2806 20.5278 56.2804 20.5278C56.2803 20.5278 56.2801 20.5278 56.28 20.5278C56.2798 20.5278 56.2797 20.5278 56.2795 20.5278C56.2794 20.5278 56.2792 20.5278 56.2791 20.5278C56.2789 20.5278 56.2788 20.5278 56.2786 20.5278C56.2785 20.5278 56.2783 20.5278 56.2782 20.5278C56.278 20.5278 56.2779 20.5278 56.2777 20.5278C56.2776 20.5278 56.2774 20.5278 56.2773 20.5278C56.2771 20.5278 56.277 20.5278 56.2768 20.5278C56.2767 20.5278 56.2765 20.5278 56.2764 20.5278C56.2762 20.5278 56.2761 20.5278 56.2759 20.5278C56.2758 20.5278 56.2756 20.5278 56.2755 20.5278C56.2753 20.5278 56.2752 20.5278 56.275 20.5278C56.2749 20.5278 56.2747 20.5278 56.2746 20.5278C56.2744 20.5278 56.2743 20.5278 56.2741 20.5278C56.274 20.5278 56.2738 20.5278 56.2737 20.5278C56.2735 20.5278 56.2734 20.5278 56.2732 20.5278C56.2731 20.5278 56.2729 20.5278 56.2728 20.5278C56.2726 20.5278 56.2725 20.5278 56.2723 20.5278C56.2722 20.5278 56.272 20.5278 56.2719 20.5278C56.2717 20.5278 56.2716 20.5278 56.2714 20.5278C56.2713 20.5278 56.2711 20.5278 56.271 20.5278C56.2708 20.5278 56.2707 20.5278 56.2705 20.5278C56.2704 20.5278 56.2702 20.5278 56.2701 20.5278C56.2699 20.5278 56.2698 20.5278 56.2696 20.5278C56.2695 20.5278 56.2693 20.5278 56.2692 20.5278C56.269 20.5278 56.2689 20.5278 56.2687 20.5278C56.2686 20.5278 56.2684 20.5278 56.2682 20.5278C56.2681 20.5278 56.2679 20.5278 56.2678 20.5278C56.2676 20.5278 56.2675 20.5278 56.2673 20.5278C56.2672 20.5278 56.267 20.5278 56.2669 20.5278C56.2667 20.5278 56.2666 20.5278 56.2664 20.5278C56.2663 20.5278 56.2661 20.5278 56.266 20.5278C56.2658 20.5278 56.2657 20.5278 56.2655 20.5278C56.2654 20.5278 56.2652 20.5278 56.2651 20.5278C56.2649 20.5278 56.2648 20.5278 56.2646 20.5278C56.2645 20.5278 56.2643 20.5278 56.2642 20.5278C56.264 20.5278 56.2639 20.5278 56.2637 20.5278C56.2636 20.5278 56.2634 20.5278 56.2633 20.5278C56.2631 20.5278 56.263 20.5278 56.2628 20.5278C56.2627 20.5278 56.2625 20.5278 56.2624 20.5278C56.2622 20.5278 56.2621 20.5278 56.2619 20.5278C56.2618 20.5278 56.2616 20.5278 56.2615 20.5278C56.2613 20.5278 56.2612 20.5278 56.261 20.5278C56.2609 20.5278 56.2607 20.5278 56.2606 20.5278C56.2604 20.5278 56.2603 20.5278 56.2601 20.5278C56.26 20.5278 56.2598 20.5278 56.2597 20.5278C56.2595 20.5278 56.2593 20.5278 56.2592 20.5278C56.259 20.5278 56.2589 20.5278 56.2587 20.5278C56.2586 20.5278 56.2584 20.5278 56.2583 20.5278C56.2581 20.5278 56.258 20.5278 56.2578 20.5278C56.2577 20.5278 56.2575 20.5278 56.2574 20.5278C56.2572 20.5278 56.2571 20.5278 56.2569 20.5278C56.2568 20.5278 56.2566 20.5278 56.2565 20.5278C56.2563 20.5278 56.2562 20.5278 56.256 20.5278C56.2559 20.5278 56.2557 20.5278 56.2556 20.5278C56.2554 20.5278 56.2553 20.5278 56.2551 20.5278C56.255 20.5278 56.2548 20.5278 56.2547 20.5278C56.2545 20.5278 56.2544 20.5278 56.2542 20.5278C56.2541 20.5278 56.2539 20.5278 56.2538 20.5278C56.2536 20.5278 56.2535 20.5278 56.2533 20.5278C56.2532 20.5278 56.253 20.5278 56.2529 20.5278C56.2527 20.5278 56.2526 20.5278 56.2524 20.5278C56.2523 20.5278 56.2521 20.5278 56.2519 20.5278C56.2518 20.5278 56.2516 20.5278 56.2515 20.5278C56.2513 20.5278 56.2512 20.5278 56.251 20.5278C56.2509 20.5278 56.2507 20.5278 56.2506 20.5278C56.2504 20.5278 56.2503 20.5278 56.2501 20.5278C56.25 20.5278 56.2498 20.5278 56.2497 20.5278C56.2495 20.5278 56.2494 20.5278 56.2492 20.5278C56.2491 20.5278 56.2489 20.5278 56.2488 20.5278C56.2486 20.5278 56.2485 20.5278 56.2483 20.5278C56.2482 20.5278 56.248 20.5278 56.2479 20.5278C56.2477 20.5278 56.2476 20.5278 56.2474 20.5278C56.2473 20.5278 56.2471 20.5278 56.247 20.5278C56.2468 20.5278 56.2467 20.5278 56.2465 20.5278C56.2464 20.5278 56.2462 20.5278 56.2461 20.5278C56.2459 20.5278 56.2458 20.5278 56.2456 20.5278V22.5278ZM56.5668 22.5219C58.1964 22.344 59.3282 20.8677 59.1542 19.2717L57.166 19.4884C57.224 20.0208 56.8474 20.4794 56.3498 20.5337L56.5668 22.5219ZM59.1537 19.2671C58.5676 14.1104 56.2437 9.25567 52.5611 5.59132L51.1504 7.00904C54.507 10.349 56.631 14.7817 57.1665 19.493L59.1537 19.2671ZM51.1485 7.00709L51.1678 7.02644L52.5824 5.61262L52.5631 5.59327L51.1485 7.00709Z" fill="#FAF6F6" fill-opacity="0.2" mask="url(#path-1-inside-1_5299_24091)"/>
</g>
<g filter="url(#filter1_b_5299_24091)">
<mask id="path-3-inside-2_5299_24091" fill="white">
<path d="M32.1256 29.8341C30.646 29.6334 29.1952 29.275 27.8019 28.7588C26.9544 28.4434 26.0351 28.3717 25.1445 28.5581C24.2539 28.7445 23.4495 29.1889 22.7887 29.8341L21.4816 31.1387C18.2927 29.1459 15.6066 26.4506 13.5956 23.2678L14.9027 21.9632C15.5491 21.318 15.98 20.5152 16.1668 19.6263C16.3535 18.7374 16.2817 17.8199 15.9657 16.974C15.4486 15.5833 15.0751 14.1353 14.8884 12.6443C14.7304 11.5117 14.1558 10.4651 13.2796 9.71958C12.4033 8.97407 11.2685 8.54396 10.1625 8.57264H5.23553C4.57477 8.57264 3.92837 8.71601 3.32507 8.97407C2.72177 9.24647 2.19029 9.61922 1.74499 10.1067C1.2997 10.5941 0.954956 11.1676 0.739491 11.7984C0.53839 12.4149 0.452204 13.0744 0.509662 13.7482C1.06987 19.0385 2.90851 24.1997 5.79574 28.6585C8.42441 32.7875 12.0155 36.3717 16.1381 38.981C20.591 41.8627 25.7334 43.6978 31.0482 44.2712C31.1919 44.2712 31.3355 44.2856 31.4792 44.2856C31.9963 44.2856 32.499 44.1996 32.9874 44.0419C33.6195 43.8268 34.1797 43.4971 34.668 43.0526C35.1564 42.6082 35.5443 42.0634 35.8028 41.4612C36.0758 40.8591 36.205 40.2139 36.205 39.5544V34.6226C36.2338 33.4613 35.8316 32.343 35.0846 31.4685C34.3377 30.5796 33.2891 30.0061 32.1112 29.8341H32.1256Z"/>
</mask>
<path d="M32.1256 29.8341C30.646 29.6334 29.1952 29.275 27.8019 28.7588C26.9544 28.4434 26.0351 28.3717 25.1445 28.5581C24.2539 28.7445 23.4495 29.1889 22.7887 29.8341L21.4816 31.1387C18.2927 29.1459 15.6066 26.4506 13.5956 23.2678L14.9027 21.9632C15.5491 21.318 15.98 20.5152 16.1668 19.6263C16.3535 18.7374 16.2817 17.8199 15.9657 16.974C15.4486 15.5833 15.0751 14.1353 14.8884 12.6443C14.7304 11.5117 14.1558 10.4651 13.2796 9.71958C12.4033 8.97407 11.2685 8.54396 10.1625 8.57264H5.23553C4.57477 8.57264 3.92837 8.71601 3.32507 8.97407C2.72177 9.24647 2.19029 9.61922 1.74499 10.1067C1.2997 10.5941 0.954956 11.1676 0.739491 11.7984C0.53839 12.4149 0.452204 13.0744 0.509662 13.7482C1.06987 19.0385 2.90851 24.1997 5.79574 28.6585C8.42441 32.7875 12.0155 36.3717 16.1381 38.981C20.591 41.8627 25.7334 43.6978 31.0482 44.2712C31.1919 44.2712 31.3355 44.2856 31.4792 44.2856C31.9963 44.2856 32.499 44.1996 32.9874 44.0419C33.6195 43.8268 34.1797 43.4971 34.668 43.0526C35.1564 42.6082 35.5443 42.0634 35.8028 41.4612C36.0758 40.8591 36.205 40.2139 36.205 39.5544V34.6226C36.2338 33.4613 35.8316 32.343 35.0846 31.4685C34.3377 30.5796 33.2891 30.0061 32.1112 29.8341H32.1256Z" fill="#FAF6F6" fill-opacity="0.2"/>
<path d="M32.1256 29.8341V30.8341L32.26 28.8432L32.1256 29.8341ZM27.8019 28.7588L27.4531 29.696L27.4545 29.6966L27.8019 28.7588ZM22.7887 29.8341L22.0901 29.1185L22.0823 29.1263L22.7887 29.8341ZM21.4816 31.1387L20.9516 31.9868L21.6256 32.4079L22.188 31.8465L21.4816 31.1387ZM13.5956 23.2678L12.8891 22.5601L12.3227 23.1254L12.7502 23.802L13.5956 23.2678ZM14.9027 21.9632L14.1963 21.2554L14.9027 21.9632ZM15.9657 16.974L15.0284 17.3225L15.0289 17.324L15.9657 16.974ZM14.8884 12.6443L15.8807 12.52L15.8788 12.5061L14.8884 12.6443ZM10.1625 8.57264V9.57264H10.1755L10.1884 9.5723L10.1625 8.57264ZM3.32507 8.97407L2.93179 8.05465L2.92264 8.05857L2.91356 8.06266L3.32507 8.97407ZM0.739491 11.7984L-0.20692 11.4752L-0.211205 11.4883L0.739491 11.7984ZM0.509662 13.7482L-0.486723 13.8332L-0.485854 13.8434L-0.484778 13.8535L0.509662 13.7482ZM5.79574 28.6585L6.63932 28.1214L6.63512 28.1149L5.79574 28.6585ZM16.1381 38.981L16.6814 38.1414L16.6729 38.136L16.1381 38.981ZM31.0482 44.2712L30.941 45.2655L30.9944 45.2712H31.0482V44.2712ZM32.9874 44.0419L33.2947 44.9935L33.3021 44.9911L33.3095 44.9885L32.9874 44.0419ZM35.8028 41.4612L34.892 41.0484L34.8879 41.0575L34.884 41.0667L35.8028 41.4612ZM36.205 34.6226L35.2053 34.5978L35.205 34.6102V34.6226H36.205ZM35.0846 31.4685L34.319 32.1118L34.3242 32.1179L35.0846 31.4685ZM32.1112 29.8341V28.8341L31.9667 30.8236L32.1112 29.8341ZM32.26 28.8432C30.8513 28.6521 29.472 28.3111 28.1493 27.8211L27.4545 29.6966C28.9185 30.2388 30.4408 30.6147 31.9911 30.825L32.26 28.8432ZM28.1507 27.8216C27.1276 27.4409 26.0164 27.354 24.9397 27.5793L25.3493 29.5369C26.0538 29.3895 26.7812 29.446 27.4531 29.696L28.1507 27.8216ZM24.9397 27.5793C23.8512 27.8071 22.8783 28.349 22.0901 29.1186L23.4874 30.5496C24.0207 30.0289 24.6566 29.6819 25.3493 29.5369L24.9397 27.5793ZM22.0823 29.1263L20.7752 30.431L22.188 31.8465L23.4952 30.5419L22.0823 29.1263ZM22.0115 30.2907C18.9526 28.3791 16.3733 25.792 14.441 22.7337L12.7502 23.802C14.8398 27.1092 17.6328 29.9128 20.9516 31.9868L22.0115 30.2907ZM14.302 23.9756L15.6092 22.671L14.1963 21.2554L12.8891 22.5601L14.302 23.9756ZM15.6092 22.671C16.3948 21.8868 16.9192 20.9088 17.1454 19.8319L15.1881 19.4207C15.0409 20.1216 14.7034 20.7493 14.1963 21.2554L15.6092 22.671ZM17.1454 19.8319C17.3714 18.7561 17.2842 17.646 16.9024 16.624L15.0289 17.324C15.2792 17.9937 15.3356 18.7187 15.1881 19.4207L17.1454 19.8319ZM16.903 16.6255C16.41 15.2998 16.0568 13.927 15.8806 12.52L13.8961 12.7686C14.0934 14.3436 14.4871 15.8668 15.0284 17.3225L16.903 16.6255ZM15.8788 12.5061C15.6868 11.1301 14.99 9.86187 13.9276 8.95795L12.6315 10.4812C13.3216 11.0683 13.7739 11.8933 13.898 12.7825L15.8788 12.5061ZM13.9276 8.95795C12.8811 8.06756 11.5108 7.53735 10.1366 7.57297L10.1884 9.5723C11.0263 9.55058 11.9256 9.88058 12.6315 10.4812L13.9276 8.95795ZM10.1625 7.57264H5.23553V9.57264H10.1625V7.57264ZM5.23553 7.57264C4.42911 7.57264 3.6494 7.74769 2.93179 8.05465L3.71835 9.89349C4.20735 9.68432 4.72042 9.57264 5.23553 9.57264V7.57264ZM2.91356 8.06266C2.19646 8.38644 1.55087 8.83651 1.00668 9.43221L2.48331 10.7811C2.82971 10.4019 3.24707 10.1065 3.73658 9.88547L2.91356 8.06266ZM1.00668 9.43221C0.471272 10.0183 0.0543285 10.7106 -0.20683 11.4752L1.68581 12.1216C1.85558 11.6246 2.12813 11.1699 2.48331 10.7811L1.00668 9.43221ZM-0.211205 11.4883C-0.451528 12.225 -0.556172 13.0187 -0.486723 13.8332L1.50605 13.6633C1.46058 13.1301 1.52831 12.6048 1.69019 12.1085L-0.211205 11.4883ZM-0.484778 13.8535C0.0921213 19.3014 1.98449 24.6126 4.95635 29.202L6.63512 28.1149C3.83252 23.7869 2.04762 18.7756 1.5041 13.6429L-0.484778 13.8535ZM4.95218 29.1955C7.6596 33.4482 11.356 37.1377 15.6032 39.8259L16.6729 38.136C12.675 35.6056 9.18922 32.1267 6.63929 28.1214L4.95218 29.1955ZM15.5948 39.8205C20.1784 42.7868 25.47 44.6752 30.941 45.2655L31.1555 43.277C25.9968 42.7204 21.0036 40.9386 16.6814 38.1414L15.5948 39.8205ZM31.0482 45.2712C31.091 45.2712 31.1379 45.2734 31.2139 45.2772C31.2815 45.2805 31.3783 45.2856 31.4792 45.2856V43.2856C31.4364 43.2856 31.3895 43.2834 31.3135 43.2797C31.2459 43.2763 31.1492 43.2712 31.0482 43.2712V45.2712ZM31.4792 45.2856C32.109 45.2856 32.7154 45.1805 33.2947 44.9935L32.6801 43.0902C32.2827 43.2186 31.8836 43.2856 31.4792 43.2856V45.2856ZM33.3095 44.9885C34.07 44.7298 34.75 44.3301 35.3411 43.7922L33.995 42.313C33.6093 42.664 33.1689 42.9238 32.6653 43.0951L33.3095 44.9885ZM35.3411 43.7922C35.9349 43.2518 36.4067 42.5895 36.7217 41.8558L34.884 41.0667C34.6819 41.5373 34.378 41.9645 33.995 42.313L35.3411 43.7922ZM36.7136 41.8741C37.0495 41.1331 37.205 40.346 37.205 39.5544H35.205C35.205 40.0819 35.102 40.585 34.892 41.0484L36.7136 41.8741ZM37.205 39.5544V34.6226H35.205V39.5544H37.205ZM37.2047 34.6473C37.2396 33.2376 36.7509 31.8797 35.845 30.819L34.3242 32.1179C34.9122 32.8064 35.2279 33.685 35.2053 34.5978L37.2047 34.6473ZM35.8502 30.8252C34.9398 29.7417 33.6668 29.0507 32.2557 28.8446L31.9667 30.8236C32.9113 30.9616 33.7356 31.4175 34.319 32.1118L35.8502 30.8252ZM32.1112 30.8341H32.1256V28.8341H32.1112V30.8341Z" fill="#FAF6F6" fill-opacity="0.2" mask="url(#path-3-inside-2_5299_24091)"/>
</g>
<defs>
<filter id="filter0_b_5299_24091" x="-11.8281" y="-20" width="90" height="90" filterUnits="userSpaceOnUse" color-interpolation-filters="sRGB">
<feFlood flood-opacity="0" result="BackgroundImageFix"/>
<feGaussianBlur in="BackgroundImage" stdDeviation="10"/>
<feComposite in2="SourceAlpha" operator="in" result="effect1_backgroundBlur_5299_24091"/>
<feBlend mode="normal" in="SourceGraphic" in2="effect1_backgroundBlur_5299_24091" result="shape"/>
</filter>
<filter id="filter1_b_5299_24091" x="-19.5078" y="-11.4287" width="75.7148" height="75.7144" filterUnits="userSpaceOnUse" color-interpolation-filters="sRGB">
<feFlood flood-opacity="0" result="BackgroundImageFix"/>
<feGaussianBlur in="BackgroundImage" stdDeviation="10"/>
<feComposite in2="SourceAlpha" operator="in" result="effect1_backgroundBlur_5299_24091"/>
<feBlend mode="normal" in="SourceGraphic" in2="effect1_backgroundBlur_5299_24091" result="shape"/>
</filter>
</defs>
</svg>
