<svg width="51" height="50" viewBox="0 0 51 50" fill="none" xmlns="http://www.w3.org/2000/svg">
<g filter="url(#filter0_b_5299_24077)">
<path d="M5.85651 21.2668C5.84792 24.569 6.61757 27.8267 8.10275 30.7743C9.86372 34.3064 12.5709 37.2773 15.921 39.3542C19.2712 41.4311 23.132 42.532 27.071 42.5335C30.0865 42.5414 33.0647 41.8955 35.8026 40.6441C36.2886 40.4219 36.8404 40.3771 37.3473 40.5464L46.9874 43.7677C48.5506 44.2901 50.0392 42.8037 49.5191 41.2398L46.3015 31.563C46.1336 31.0581 46.178 30.509 46.3984 30.0247C47.6482 27.2788 48.2933 24.2915 48.2854 21.2668C48.2839 17.3181 47.1857 13.4478 45.1139 10.0894C43.0421 6.73098 40.0785 4.01715 36.5551 2.25184C33.6147 0.762999 30.3651 -0.00853862 27.071 7.12763e-05H25.8231C20.6209 0.287777 15.7074 2.48893 12.0233 6.18208C8.33926 9.87522 6.14351 14.8008 5.85651 20.0158V21.2668Z" fill="#FAF6F6" fill-opacity="0.2"/>
<path d="M6.35651 21.2668V21.2681C6.34813 24.4918 7.09946 27.6719 8.54927 30.5493L8.55022 30.5512C10.2698 34.0004 12.9133 36.9013 16.1845 38.9292C19.4556 40.9572 23.2253 42.032 27.0712 42.0335H27.0723C30.0155 42.0412 32.9224 41.4108 35.5947 40.1893C36.1862 39.9189 36.8688 39.8594 37.5057 40.0722L47.1459 43.2935C48.3183 43.6853 49.4347 42.5705 49.0447 41.3976L45.827 31.7207C45.6161 31.0864 45.6751 30.407 45.9433 29.8176C47.1634 27.1371 47.7931 24.2209 47.7854 21.2681L47.7854 21.267C47.7839 17.4109 46.7115 13.6314 44.6884 10.3519C42.6653 7.07242 39.7714 4.42253 36.3311 2.69888L36.3292 2.69792C33.4592 1.24471 30.2875 0.491666 27.0723 0.500071H27.071H25.837C20.7631 0.784067 15.9712 2.93245 12.3773 6.53519C8.78337 10.138 6.63984 14.9423 6.35651 20.0296V21.2668Z" stroke="#FAF6F6" stroke-opacity="0.2" stroke-linecap="round" stroke-linejoin="round"/>
</g>
<g filter="url(#filter1_b_5299_24077)">
<path d="M32.0335 33.3429C32.0395 35.6571 31.5001 37.94 30.4593 40.0057C29.2253 42.4809 27.3281 44.5629 24.9804 46.0184C22.6326 47.4738 19.9271 48.2453 17.1666 48.2464C15.1369 48.2517 13.1312 47.8343 11.2758 47.0242C10.786 46.8104 10.235 46.7637 9.72812 46.9331L4.34459 48.732C2.78145 49.2543 1.29288 47.768 1.8129 46.2041L3.61169 40.7944C3.77957 40.2895 3.7333 39.7411 3.52111 39.2532C2.7116 37.3918 2.29452 35.3795 2.29982 33.3429C2.30089 30.5757 3.07047 27.8635 4.52236 25.51C5.97425 23.1564 8.0511 21.2546 10.5203 20.0175C12.5809 18.9742 14.8581 18.4335 17.1666 18.4395H18.0412C21.6868 18.6411 25.1301 20.1837 27.7118 22.7718C30.2936 25.3599 31.8323 28.8117 32.0335 32.4663V33.3429Z" fill="#FAF6F6" fill-opacity="0.2"/>
<path d="M31.5335 33.3429L31.5335 33.3442C31.5393 35.5799 31.0182 37.7852 30.0128 39.7807L30.0119 39.7826C28.8192 42.1749 26.9857 44.1869 24.7169 45.5934C22.4482 46.9999 19.8338 47.7454 17.1665 47.7464L17.1653 47.7464C15.205 47.7515 13.2679 47.3484 11.4759 46.566C10.8868 46.3088 10.2078 46.2456 9.56966 46.4589L4.18612 48.2578C3.01377 48.6495 1.89734 47.5348 2.28735 46.3618L4.08615 40.9521C4.29748 40.3166 4.23489 39.6407 3.97962 39.0538C3.19762 37.2557 2.7947 35.3117 2.79982 33.3442L2.79982 33.3431C2.80085 30.6685 3.54469 28.0471 4.9479 25.7725C6.3511 23.4979 8.35821 21.66 10.7443 20.4646L10.7462 20.4636C12.7364 19.4559 14.9358 18.9337 17.1653 18.9395H17.1666H18.0272C21.5445 19.1374 24.8663 20.6272 27.3579 23.1249C29.8495 25.6227 31.336 28.9531 31.5335 32.4801L31.5335 33.3429Z" stroke="#FAF6F6" stroke-opacity="0.2" stroke-linecap="round" stroke-linejoin="round"/>
</g>
<defs>
<filter id="filter0_b_5299_24077" x="-214.145" y="-220" width="483.77" height="483.875" filterUnits="userSpaceOnUse" color-interpolation-filters="sRGB">
<feFlood flood-opacity="0" result="BackgroundImageFix"/>
<feGaussianBlur in="BackgroundImage" stdDeviation="110"/>
<feComposite in2="SourceAlpha" operator="in" result="effect1_backgroundBlur_5299_24077"/>
<feBlend mode="normal" in="SourceGraphic" in2="effect1_backgroundBlur_5299_24077" result="shape"/>
</filter>
<filter id="filter1_b_5299_24077" x="-218.293" y="-201.561" width="470.326" height="470.399" filterUnits="userSpaceOnUse" color-interpolation-filters="sRGB">
<feFlood flood-opacity="0" result="BackgroundImageFix"/>
<feGaussianBlur in="BackgroundImage" stdDeviation="110"/>
<feComposite in2="SourceAlpha" operator="in" result="effect1_backgroundBlur_5299_24077"/>
<feBlend mode="normal" in="SourceGraphic" in2="effect1_backgroundBlur_5299_24077" result="shape"/>
</filter>
</defs>
</svg>
