<svg width="74" height="45" viewBox="0 0 74 45" fill="none" xmlns="http://www.w3.org/2000/svg">
<g filter="url(#filter0_b_5299_24084)">
<path d="M72.0848 5.40795C71.3532 5.0289 70.4673 5.09502 69.7973 5.57543L55.191 15.9946V7.36485C55.191 3.30118 51.8855 0 47.8174 0H19.3893C15.3212 0 12.0156 3.30559 12.0156 7.36485V33.1793C12.0156 37.243 15.3212 40.5442 19.3893 40.5442H47.8174C51.881 40.5442 55.191 37.2386 55.191 33.1793V24.5495L69.7973 34.9687C70.1764 35.242 70.6259 35.3786 71.0755 35.3786C71.4193 35.3786 71.7675 35.2993 72.0848 35.1362C72.8164 34.7572 73.2792 34.0035 73.2792 33.1749V7.36485C73.2792 6.54066 72.8164 5.78258 72.0848 5.40354V5.40795Z" fill="#FAF6F6" fill-opacity="0.2"/>
<path d="M71.8548 5.8519L71.9557 5.90415C72.4634 6.21244 72.7792 6.76683 72.7792 7.36485V33.1749C72.7792 33.8153 72.4218 34.3984 71.8551 34.6921C71.6116 34.817 71.3426 34.8786 71.0755 34.8786C70.7267 34.8786 70.3803 34.7726 70.0897 34.5631L70.0877 34.5617L55.4814 24.1425L54.691 23.5787V24.5495V33.1793C54.691 36.9618 51.6055 40.0442 47.8174 40.0442H19.3893C15.5968 40.0442 12.5156 36.9663 12.5156 33.1793V7.36485C12.5156 3.58212 15.597 0.5 19.3893 0.5H47.8174C51.6099 0.5 54.691 3.57791 54.691 7.36485V15.9946V16.9655L55.4814 16.4017L70.0877 5.98248L70.0887 5.98175C70.6067 5.61032 71.2912 5.55991 71.8548 5.8519Z" stroke="#FAF6F6" stroke-opacity="0.2"/>
</g>
<g filter="url(#filter1_b_5299_24084)">
<path d="M41.7752 20.9371C41.2751 20.6775 40.6697 20.7228 40.2118 21.0518L30.2291 28.1874V22.2773C30.2291 19.4942 27.9699 17.2334 25.1895 17.2334H5.76026C2.97992 17.2334 0.720703 19.4973 0.720703 22.2773V39.9565C0.720703 42.7395 2.97992 45.0004 5.76026 45.0004H25.1895C27.9668 45.0004 30.2291 42.7365 30.2291 39.9565V34.0463L40.2118 41.182C40.4709 41.3691 40.7781 41.4627 41.0854 41.4627C41.3203 41.4627 41.5583 41.4084 41.7752 41.2967C42.2752 41.0371 42.5915 40.5209 42.5915 39.9535V22.2773C42.5915 21.7128 42.2752 21.1936 41.7752 20.934V20.9371Z" fill="#FAF6F6" fill-opacity="0.2"/>
<path d="M41.5448 21.3808L41.6088 21.414C41.9062 21.5971 42.0915 21.9244 42.0915 22.2773V39.9535C42.0915 40.3331 41.8803 40.6784 41.5455 40.8526C41.4024 40.9261 41.2436 40.9627 41.0854 40.9627C40.8791 40.9627 40.6751 40.8999 40.5046 40.7767L40.5026 40.7752L30.5198 33.6395L29.7291 33.0743V34.0463V39.9565C29.7291 42.4607 27.6903 44.5004 25.1895 44.5004H5.76026C3.25644 44.5004 1.2207 42.4638 1.2207 39.9565V22.2773C1.2207 19.7728 3.25664 17.7334 5.76026 17.7334H25.1895C27.6933 17.7334 29.7291 19.77 29.7291 22.2773V28.1874V29.1594L30.5198 28.5942L40.5026 21.4585L40.5036 21.4578C40.8094 21.2381 41.2131 21.2086 41.5448 21.3808Z" stroke="#FAF6F6" stroke-opacity="0.2"/>
</g>
<defs>
<filter id="filter0_b_5299_24084" x="-7.98438" y="-20" width="101.264" height="80.5439" filterUnits="userSpaceOnUse" color-interpolation-filters="sRGB">
<feFlood flood-opacity="0" result="BackgroundImageFix"/>
<feGaussianBlur in="BackgroundImage" stdDeviation="10"/>
<feComposite in2="SourceAlpha" operator="in" result="effect1_backgroundBlur_5299_24084"/>
<feBlend mode="normal" in="SourceGraphic" in2="effect1_backgroundBlur_5299_24084" result="shape"/>
</filter>
<filter id="filter1_b_5299_24084" x="-19.2793" y="-2.7666" width="81.8711" height="67.7671" filterUnits="userSpaceOnUse" color-interpolation-filters="sRGB">
<feFlood flood-opacity="0" result="BackgroundImageFix"/>
<feGaussianBlur in="BackgroundImage" stdDeviation="10"/>
<feComposite in2="SourceAlpha" operator="in" result="effect1_backgroundBlur_5299_24084"/>
<feBlend mode="normal" in="SourceGraphic" in2="effect1_backgroundBlur_5299_24084" result="shape"/>
</filter>
</defs>
</svg>
